<svg id="Layer_1" data-name="Layer 1" xmlns="http://www.w3.org/2000/svg" viewBox="0 0 100 100"><defs><style>.cls-1{fill:#fff;}.cls-2{fill:#2b612a;}.cls-3{fill:#417e31;}</style></defs><rect class="cls-1" x="2.41" y="2.41" width="95.18" height="95.18" rx="6.12"/><path class="cls-2" d="M53.13,67.68a17.67,17.67,0,0,1-14.74-7.93l-.53-.81,6.78-4.64.54.84a9.48,9.48,0,0,0,8,4.33l.77,0a9.46,9.46,0,0,0,6.91-15l-.59-.81L67,39l.56.78A17.68,17.68,0,0,1,53.13,67.68Z"/><path class="cls-2" d="M53.13,66.7a16.69,16.69,0,0,1-13.92-7.5l5.15-3.52a10.45,10.45,0,1,0,17.25-11.8l5.15-3.52a16.53,16.53,0,0,1,3,8.34A16.72,16.72,0,0,1,53.13,66.7Z"/><path class="cls-2" d="M30.09,80l5.08-7.16.8-1.12H52.85A21.73,21.73,0,0,0,70.92,37.53l-.58-.82L77.19,32l.56.8A30,30,0,0,1,53.13,80Z"/><path class="cls-2" d="M82.17,50a29,29,0,0,1-29,29H32l4-5.61.5-.7H52.85a22.9,22.9,0,0,0,23-21.88A22.62,22.62,0,0,0,71.73,37l5.21-3.58A28.81,28.81,0,0,1,82.17,50Z"/><path class="cls-3" d="M40.39,38.77l-3-5.39-2.91-5.12h0L29.73,20h23.4A30,30,0,0,1,77.75,32.82l.57.81-6.84,4.69-.56-.8a21.82,21.82,0,0,0-17.79-9.26H45l.17.3,2.6,4.57a17.8,17.8,0,0,1,5.32-.82c.41,0,.83,0,1.24,0a17.63,17.63,0,0,1,13.19,7.43l.58.81-6.77,4.63-.56-.78a9.45,9.45,0,0,0-15.47.17l-.89,1.29Z"/><path class="cls-3" d="M76.94,33.38,71.73,37a22.72,22.72,0,0,0-18.6-9.68H43.36l1,1.77,3,5.29a16.69,16.69,0,0,1,19.4,6l-5.15,3.53a10.45,10.45,0,0,0-17.08.18l-3.29-5.79L38.19,32.9,35,27.3l0,0h0L31.41,21H53.13A29,29,0,0,1,76.94,33.38Z"/><path class="cls-3" d="M38.4,59.76,37.93,59v0l-.68-1.26,0-.06L30.26,44.82,21,27.74,16.84,20H26l5.88,10.77,3.32,6.08L44.57,54l0,.06a9.09,9.09,0,0,0,.47.87l.63,1L39,60.57Z"/><path class="cls-3" d="M44.24,55.49l.12.19-5.15,3.53-.44-.69-.66-1.23,0-.06-7-12.88-4-7.33L21.9,27.28,18.48,21h6.9l3.45,6.32L31,31.22,34.3,37.3l3.42,6.27,6,10.93v0C43.87,54.85,44.05,55.18,44.24,55.49Z"/></svg>