<svg id="Layer_1" data-name="Layer 1" xmlns="http://www.w3.org/2000/svg" viewBox="0 0 100 100"><defs><style>.cls-1{fill:#fff;stroke:#fff;stroke-miterlimit:10;}</style></defs><path class="cls-1" d="M18.75,12.76l.5-.37,2.09,2.83,3.9-2.88L23.15,9.51l.5-.37,4.79,6.5-.5.37-2.36-3.2-3.9,2.87,2.37,3.21-.5.37Z"/><path class="cls-1" d="M27,7.28l3.88,7.08-.55.3L26.44,7.58Z"/><path class="cls-1" d="M31.93,9.58l1.4,3.51-.59.24-3-7.51,2.69-1.07c1.48-.59,2.58-.11,3.05,1.07a1.84,1.84,0,0,1-.7,2.32c.84-.13,1.56.17,2.07,1.45l.11.29a5.24,5.24,0,0,0,.71,1.48l-.6.24a5.75,5.75,0,0,1-.73-1.53l-.07-.19c-.49-1.23-1.06-1.6-2.5-1Zm-.21-.53,1.81-.72c1.32-.53,1.74-1.27,1.34-2.25s-1.17-1.21-2.34-.75l-2,.79Z"/><path class="cls-1" d="M43.1,6.05l-4,.86.71,3.32,4.41-1,0,.58L39.3,10.92,37.6,3l4.83-1,.13.56-4.23.91L39,6.35l4-.87Z"/><path class="cls-1" d="M55.55,6.07c.09-1.58.18-3.09.26-3.89h0c-.38,1.06-2.23,4.95-3.39,7.44l-.61,0c-.66-2-2.12-6.52-2.43-7.76h0c0,.93-.07,2.81-.14,4.19L49,9.44l-.62,0,.42-8.06.94,0c1,2.82,2.16,6.51,2.41,7.44h0c.22-.58,2-4.51,3.32-7.14l.92.05L56,9.81l-.62,0Z"/><path class="cls-1" d="M63.52,7.61l-4-1-.85,3.29L63.06,11l-.23.53L58,10.27l2-7.82,4.8,1.23-.15.56L60.41,3.17,59.68,6l4,1Z"/><path class="cls-1" d="M66.44,13l.61-1.35.53.24L67,13.27Z"/><path class="cls-1" d="M75.61,8.67l.51.36-2,2.87,4,2.81,2-2.87.51.36-4.68,6.58-.5-.36,2.3-3.24-4-2.81-2.3,3.24-.51-.36Z"/><path class="cls-1" d="M83.39,14.79l-5.52,5.9-.46-.43,5.53-5.9Z"/><path class="cls-1" d="M82.74,20.22l-2.9,2.42-.4-.49L85.63,17l1.86,2.22c1,1.22.91,2.42-.07,3.23a1.83,1.83,0,0,1-2.42.06c.38.76.32,1.53-.73,2.41l-.24.2a5.46,5.46,0,0,0-1.19,1.13l-.41-.48a5.3,5.3,0,0,1,1.22-1.17l.16-.14c1-.85,1.19-1.5.2-2.69Zm.44-.37,1.25,1.49c.91,1.09,1.74,1.26,2.55.58s.78-1.5,0-2.46L85.6,17.83Z"/><path class="cls-1" d="M89.6,29.71l-2.09-3.56-2.92,1.72,2.28,3.89-.54.21-2.56-4.34,7-4.09,2.51,4.26-.5.3-2.19-3.74L88,25.86l2.09,3.55Z"/><path class="cls-1" d="M93.47,41.54c1.52-.41,3-.79,3.78-1v0c-1.13,0-5.4-.57-8.13-.9L89,39.05c1.7-1.26,5.54-4,6.62-4.73v0c-.87.3-2.68.81-4,1.17l-3.32.89-.16-.6,7.8-2.1.24.9c-2.38,1.79-5.52,4.08-6.32,4.61v0c.61,0,4.92.54,7.81.93l.24.89L90,43.11l-.16-.6Z"/><path class="cls-1" d="M94.49,49.59l-.27-4.11-3.39.22.29,4.5-.58-.05-.33-5,8.07-.52.32,4.94-.58,0-.28-4.32-2.95.19.27,4.11Z"/><path class="cls-1" d="M90.25,54l1.48.16-.06.57-1.48-.15Z"/><path class="cls-1" d="M97.27,61.41l-.18.59-3.36-1L92.3,65.6l3.36,1-.18.59-7.73-2.38.19-.59,3.8,1.17,1.43-4.63-3.8-1.18.18-.59Z"/><path class="cls-1" d="M93.89,70.73l-7.33-3.41.27-.57,7.32,3.41Z"/><path class="cls-1" d="M88.54,71.78l-3.21-2,.34-.54,6.86,4.27L91,76c-.84,1.35-2,1.61-3.09.94a1.82,1.82,0,0,1-.8-2.28c-.61.6-1.36.78-2.53.06l-.26-.17a5.37,5.37,0,0,0-1.45-.78l.34-.53a5.19,5.19,0,0,1,1.49.79l.17.11c1.13.7,1.81.66,2.63-.65Zm.49.31-1,1.65c-.75,1.21-.64,2.05.26,2.61s1.66.27,2.33-.79l1.12-1.81Z"/><path class="cls-1" d="M81.66,81.25l2.72-3.09-2.54-2.24-3,3.38-.37-.45,3.33-3.78,6.06,5.34L84.6,84.12l-.43-.38L87,80.5l-2.21-2-2.73,3.09Z"/><path class="cls-1" d="M71.62,88.64c.87,1.32,1.69,2.59,2.11,3.28l0,0c-.33-1.08-1.15-5.3-1.7-8l.51-.34c1.73,1.22,5.59,4,6.57,4.8h0c-.56-.74-1.61-2.3-2.38-3.45L74.89,82l.52-.34,4.45,6.74-.78.51c-2.45-1.7-5.61-4-6.36-4.55h0c.17.59,1,4.84,1.57,7.71l-.77.51-4.44-6.74.52-.35Z"/><path class="cls-1" d="M64.31,92.13l3.81-1.54-1.27-3.14-4.18,1.68-.13-.56,4.68-1.89,3,7.49L65.65,96l-.22-.54,4-1.62-1.11-2.73-3.82,1.54Z"/><path class="cls-1" d="M58.74,89.5,59.05,91l-.56.12-.31-1.46Z"/><path class="cls-1" d="M54,98.46h-.63L53.26,95,48.41,95l.07,3.52h-.62l-.15-8.07.62,0,.07,4,4.85-.08-.08-4h.63Z"/><path class="cls-1" d="M44.05,98.16l.93-8,.62.07-.93,8Z"/><path class="cls-1" d="M41.36,93.41l.88-3.66.62.15L41,97.75l-2.82-.69c-1.54-.37-2.16-1.4-1.86-2.63a1.83,1.83,0,0,1,1.91-1.49c-.76-.38-1.17-1-.85-2.37l.08-.31a5.54,5.54,0,0,0,.28-1.61l.62.15A5.32,5.32,0,0,1,38,90.46l0,.2c-.32,1.29-.07,1.92,1.44,2.29Zm-.14.56-1.9-.45c-1.37-.34-2.14,0-2.39,1s.26,1.67,1.49,2l2.06.5Z"/><path class="cls-1" d="M30.22,89.85,34,91.48l1.34-3.12-4.15-1.78.32-.49,4.63,2L33,95.5l-4.55-2,.22-.53,4,1.7L33.78,92,30,90.38Z"/><path class="cls-1" d="M20.06,82.62c-1,1.24-1.93,2.41-2.46,3l0,0c.93-.65,4.68-2.75,7.07-4.11l.48.38c-.62,2-2.05,6.55-2.52,7.74h0c.53-.76,1.68-2.25,2.54-3.33l2.14-2.69.49.39-5,6.32-.74-.58c.86-2.86,2-6.56,2.35-7.46l0,0c-.51.35-4.28,2.5-6.83,3.9l-.73-.57,5-6.33.49.39Z"/><path class="cls-1" d="M14.47,76.77l2.66,3.15,2.59-2.2L16.8,74.28l.5-.3,3.26,3.85L14.4,83.05l-3.2-3.78.44-.37,2.8,3.3,2.25-1.91L14,77.15Z"/><path class="cls-1" d="M15.23,70.67,14,71.42l-.3-.49,1.29-.76Z"/><path class="cls-1" d="M5.2,68.93,5,68.34l3.32-1.16L6.72,62.6,3.39,63.76l-.2-.58,7.62-2.68.21.59L7.26,62.41,8.86,67l3.76-1.32.21.59Z"/><path class="cls-1" d="M2.39,59.43l7.92-1.62.12.61L2.52,60Z"/><path class="cls-1" d="M6.06,55.35l3.77-.29.05.63-8.06.63L1.6,53.44c-.13-1.59.66-2.5,1.92-2.6a1.84,1.84,0,0,1,2,1.36c.13-.84.63-1.44,2-1.54l.31,0a5.37,5.37,0,0,0,1.62-.23l0,.63a5.14,5.14,0,0,1-1.67.25l-.21,0c-1.32.1-1.84.53-1.72,2.08Zm-.57,0-.15-1.94c-.11-1.42-.69-2-1.75-2s-1.51.76-1.41,2l.17,2.12Z"/><path class="cls-1" d="M6,43.67l-.35,4.1L9,48.06l.39-4.49.57.14-.44,5-8-.7.43-4.92.57,0-.37,4.3L5,47.72l.36-4.1Z"/><path class="cls-1" d="M9.64,31.76c-1.48-.54-2.9-1.08-3.64-1.39l0,0c.91.68,4.08,3.59,6.12,5.44l-.21.57c-2.12.05-6.86.11-8.14,0v0c.89.26,2.66.89,4,1.37L10.93,39l-.21.59L3.13,36.82l.33-.88c3-.08,6.86-.14,7.82-.11v0c-.49-.38-3.71-3.28-5.85-5.27l.32-.87,7.58,2.79-.21.58Z"/><path class="cls-1" d="M13.46,24.63,11.3,28.14l2.89,1.77,2.36-3.84.44.38-2.64,4.3L7.47,26.52l2.6-4.22.49.3L8.29,26.29l2.52,1.55L13,24.33Z"/><path class="cls-1" d="M19.51,23.43l-1.12-1,.38-.43,1.12,1Z"/></svg>