<svg id="Layer_1" data-name="Layer 1" xmlns="http://www.w3.org/2000/svg" viewBox="0 0 750 750"><defs><style>.cls-1{fill:#296013;}.cls-2{fill:#3f7d20;}</style></defs><path class="cls-1" d="M406.89,554.82A179.35,179.35,0,0,1,257,474.14l-5.44-8.21,68.94-47.16,5.58,8.58a96.07,96.07,0,0,0,80.81,44c2.57,0,5.18-.11,7.76-.31,47-3.69,85-42,88.28-89a96.45,96.45,0,0,0-18-63.29l-6-8.33,69-47.16,5.69,8a179.39,179.39,0,0,1-14.85,225.93A180.32,180.32,0,0,1,406.89,554.82Z"/><path class="cls-1" d="M406.89,544.82a169.56,169.56,0,0,1-141.54-76.2l52.36-35.82A106.31,106.31,0,0,0,415.46,481c51.93-4.07,93.81-46.33,97.46-98.3a105.84,105.84,0,0,0-19.87-69.87L545.44,277a168.1,168.1,0,0,1,30.74,84.8C583.76,461.35,504.88,544.82,406.89,544.82Z"/><path class="cls-1" d="M172.58,680.28l51.69-72.84,8.07-11.39H404c121.12,0,219.39-93.48,223.72-212.83a219,219,0,0,0-40-135l-5.83-8.28,69.61-47.7,5.67,8.11a305.13,305.13,0,0,1-250.33,480Z"/><path class="cls-1" d="M702.19,375a295.3,295.3,0,0,1-295.3,295.26H191.94l40.48-57.06,5.09-7.17H404c124.72,0,229.19-97.81,233.71-222.47A229.69,229.69,0,0,0,596,242.43L649,206.05A293.39,293.39,0,0,1,702.19,375Z"/><path class="cls-2" d="M277.34,260.83l-31.06-54.76L216.7,154h0L168.89,69.72h238A305.3,305.3,0,0,1,657.23,200.33L663,208.6l-69.56,47.66-5.68-8.08A221.53,221.53,0,0,0,406.89,154H324.62l1.72,3,26.43,46.52a178.72,178.72,0,0,1,54.11-8.32c4.18,0,8.41.15,12.6.43,53.69,3.67,102.57,31.2,134.11,75.55l5.9,8.3-68.84,47.06-5.7-7.89a96.68,96.68,0,0,0-78.06-40,97.73,97.73,0,0,0-24.21,3.06,96.72,96.72,0,0,0-55,38.61l-9.06,13.09Z"/><path class="cls-2" d="M649,206.05,596,242.43C554.11,182.93,485,144,406.89,144H307.48l10.16,18,30.53,53.75a169.25,169.25,0,0,1,70.63-10.06c52,3.55,97.92,31,126.64,71.36l-52.39,35.82a106.22,106.22,0,0,0-86.16-44.1,105.81,105.81,0,0,0-87.48,46L286,255.9l-31-54.76-32.3-56.88A2.86,2.86,0,0,1,223,144h-.53L186.06,79.72H406.89A295.29,295.29,0,0,1,649,206.05Z"/><path class="cls-2" d="M257.09,474.25c-1.78-2.61-3.4-5.25-4.75-7.49l-.13-.21-6.93-12.84-.28-.55L174.3,322.37,80.49,148.73l-42.68-79h92.78l59.82,109.57,33.77,61.82,95.64,175,.31.62a86.88,86.88,0,0,0,4.82,8.79l6.36,10.07-68.58,46.92Z"/><path class="cls-2" d="M316.46,430.82c.41.66.83,1.32,1.25,2l-52.36,35.82c-1.56-2.3-3-4.66-4.45-7l-6.75-12.5-.28-.55L183.1,317.62,142.75,243,89.28,144,54.58,79.72h70.07L159.74,144l21.9,40.1,33.76,61.83,34.81,63.7L311,420.76l.13.28A100.42,100.42,0,0,0,316.46,430.82Z"/></svg>