<?xml version="1.0" encoding="utf-8"?>
<!-- Generator: Adobe Illustrator 25.4.1, SVG Export Plug-In . SVG Version: 6.00 Build 0)  -->
<svg version="1.1" id="Layer_1" xmlns="http://www.w3.org/2000/svg" xmlns:xlink="http://www.w3.org/1999/xlink" x="0px" y="0px"
	 viewBox="0 0 624.7 182" style="enable-background:new 0 0 624.7 182;" xml:space="preserve">
<style type="text/css">
	.st0{fill:#3F7D20;}
	.st1{fill:#30373F;}
	.st2{fill:#8DAB79;}
</style>
<path class="st0" d="M73.6,97.4c2.2,3.3,3.4,7.3,3.3,11.3c0,6.7-2.6,12-7.8,15.8c-5.2,3.8-12.3,5.7-21.4,5.7H12.2
	c-1.3,0-2.4-1.1-2.4-2.3v0V55.6c0-1.3,1.1-2.3,2.4-2.3l0,0h35.7c8.3,0,14.8,1.8,19.5,5.5c4.7,3.5,7.4,9.1,7.1,14.9
	c0.1,3.5-0.8,6.9-2.6,9.8c-1,1.7-2.4,3.2-4,4.5c-1,0.8-1.2,2.2-0.5,3.3c0.2,0.2,0.4,0.4,0.6,0.5C70.3,93.3,72.2,95.2,73.6,97.4z
	 M27.5,70.5V81c0,1.3,1.1,2.3,2.4,2.3l0,0h18.3c2.9,0,5-0.7,6.6-2c1.6-1.4,2.4-3.5,2.3-5.6c0.1-2.1-0.8-4.2-2.4-5.7
	c-1.9-1.4-4.2-2.1-6.5-2H29.9C28.6,68.1,27.5,69.2,27.5,70.5z M56.5,112.7c3.5-3.5,3.6-9.1,0.1-12.7c0,0-0.1-0.1-0.1-0.1
	c-1.8-1.5-4.3-2.3-7.5-2.3H29.9c-1.3,0-2.4,1.1-2.4,2.3l0,0v12.7c0,1.3,1.1,2.3,2.4,2.3h19.2C52.3,115,54.8,114.2,56.5,112.7
	L56.5,112.7z"/>
<path class="st0" d="M129,78c4.2,2.1,7.6,5.4,9.9,9.4c2.4,4.4,3.6,9.3,3.5,14.2c0,1.5-0.1,2.9-0.3,4.4c-0.1,1.2-1.1,2.1-2.3,2.1
	h-34.4c-1.3,0-2.3,1.1-2.3,2.3c0,0.4,0.1,0.8,0.3,1.2c0.8,1.3,1.9,2.4,3.1,3.2c2.8,1.8,6.2,2.7,9.6,2.6c2.7,0,5.3-0.4,7.9-1.2
	c1.8-0.5,3.4-1.3,5-2.3c0.9-0.6,2.2-0.4,2.9,0.4l5.9,6.4c0.9,1,0.8,2.4-0.1,3.3c0,0-0.1,0.1-0.1,0.1c-2.7,2.1-5.8,3.8-9,4.9
	c-4.3,1.6-8.9,2.3-13.5,2.3c-5.6,0.1-11.2-1-16.3-3.4c-4.4-2.2-8.1-5.6-10.6-9.8c-2.6-4.6-3.9-9.8-3.7-15
	c-0.1-5.2,1.2-10.3,3.7-14.8c2.4-4.2,6-7.7,10.3-10c4.7-2.4,10-3.7,15.3-3.6C118.9,74.6,124.2,75.7,129,78z M105.8,91
	c-1.4,1.1-2.4,2.6-3,4.3c-0.4,1.2,0.3,2.5,1.6,2.9c0.2,0.1,0.4,0.1,0.7,0.1h18.2c1.3,0,2.3-1,2.4-2.3c0-0.2,0-0.5-0.1-0.7
	c-0.5-1.7-1.5-3.2-2.9-4.3c-2.4-1.9-5.4-2.8-8.4-2.6C111.1,88.2,108.2,89.1,105.8,91z"/>
<path class="st0" d="M190.3,76.1c1.8,0.6,3.4,1.5,4.9,2.7c0.9,0.7,1.2,2,0.6,3l-5.1,8.9c-0.6,1.1-2,1.5-3.1,0.9
	c-0.7-0.4-1.5-0.7-2.3-1c-1.4-0.4-2.8-0.6-4.2-0.6c-3.3-0.2-6.4,1.1-8.7,3.5c-2.1,2.3-3.2,5.8-3.2,10.3v24c0,1.3-1,2.3-2.3,2.4
	h-12.5c-1.3,0-2.4-1.1-2.4-2.3v0V78.2c0-1.3,1.1-2.3,2.4-2.3l0,0h10.8c1.1,0,2.1,0.8,2.3,1.9v0.1c0.2,1.3,1.5,2.1,2.7,1.9
	c0.4-0.1,0.9-0.3,1.2-0.6c3.1-2.9,7.2-4.5,11.5-4.4C185.3,74.7,187.9,75.2,190.3,76.1z"/>
<path class="st0" d="M257,78.2v49.6c0,1.3-1.1,2.4-2.4,2.4l0,0h-10.6c-1.1,0-2.1-0.8-2.3-1.9l0,0c-0.2-1.3-1.4-2.1-2.7-1.9
	c-0.4,0.1-0.7,0.2-1,0.4c-1.4,1.1-2.9,2-4.6,2.7c-3.1,1.3-6.4,2-9.7,1.9c-6.7,0-12-2.2-15.9-6.6c-4-4.4-5.9-10.5-5.9-18.2V78.2
	c0-1.3,1.1-2.3,2.4-2.3l0,0h12.5c1.3,0,2.3,1.1,2.3,2.3v27.3c0,3.5,0.9,6.3,2.6,8.2c1.8,2,4.4,3.1,7.1,3c3.1,0.1,6-1.2,8-3.5
	c2.1-2.5,3.1-5.7,3-8.9V78.2c0-1.3,1-2.3,2.3-2.3h12.5C256,75.9,257,77,257,78.2z"/>
<path class="st1" d="M324,58c5.8,3,10.7,7.7,13.8,13.5c3.4,6.2,5,13.2,4.9,20.2c0.1,7.1-1.6,14.1-4.9,20.3
	c-3.2,5.7-8,10.4-13.8,13.4c-6.4,3.3-13.6,4.9-20.8,4.7H274c-1.3,0-2.4-1.1-2.4-2.3v0V55.6c0-1.3,1.1-2.3,2.4-2.3l0,0h29.2
	C310.4,53.1,317.5,54.7,324,58z M318.8,108.3c4-4.1,5.9-9.6,5.9-16.6c0.1-4.2-0.8-8.3-2.7-12c-1.7-3.3-4.3-6.1-7.6-7.9
	c-3.4-1.9-7.4-2.9-11.3-2.8H292c-1.3,0-2.4,1.1-2.4,2.3c0,0,0,0,0,0v40.8c0,1.3,1.1,2.4,2.4,2.4l0,0h11.2
	C309.6,114.4,314.8,112.4,318.8,108.3L318.8,108.3z"/>
<path class="st1" d="M353.7,67.9c-3.7-3.7-3.7-9.7,0-13.4c0,0,0.1-0.1,0.1-0.1c4.2-3.5,10.3-3.5,14.5,0c3.7,3.7,3.8,9.7,0.2,13.4
	c0,0-0.1,0.1-0.1,0.1C364.1,71.4,357.9,71.4,353.7,67.9z M354.7,75.9h12.5c1.3,0,2.3,1.1,2.3,2.3v49.6c0,1.3-1.1,2.3-2.3,2.4h-12.6
	c-1.3,0-2.3-1.1-2.3-2.4V78.2C352.3,77,353.4,75.9,354.7,75.9L354.7,75.9z"/>
<path class="st1" d="M436.2,128.2c2,3,3.1,6.6,3,10.3c0.1,4.3-1.2,8.5-3.7,12c-2.7,3.6-6.3,6.4-10.5,8c-5,2-10.4,2.9-15.8,2.8
	c-5.3,0.1-10.5-0.9-15.4-2.9c-4.1-1.7-7.6-4.5-10.2-8.1c-2.4-3.6-3.6-7.8-3.6-12.1v-0.3c0-1.3,1.1-2.3,2.3-2.3c0,0,0,0,0,0h12.1
	c1.2,0,2.2,1,2.3,2.2c0.2,2.4,1.3,4.6,3,6.2c2.2,2,5.3,3,9.4,3c3.2,0.1,6.3-0.7,8.9-2.5c2.2-1.5,3.5-3.9,3.4-6.5
	c0.1-2.5-1.1-5-3.1-6.4c-2.1-1.5-5.1-2.2-9-2.2c-5.4,0.1-10.8-1-15.8-3.4c-4.3-2.1-8-5.5-10.4-9.6c-2.5-4.4-3.8-9.4-3.7-14.4
	c-0.1-5,1.2-9.9,3.8-14.1c2.5-4.1,6.2-7.5,10.5-9.7c4.8-2.4,10.1-3.6,15.4-3.4c3.6,0,7.3,0.6,10.7,1.9c1,0.4,2.1,0.1,2.7-0.7
	l3.9-4.8c0.8-1,2.2-1.2,3.2-0.4l8.8,6.3c1,0.8,1.3,2.2,0.5,3.3c0,0.1-0.1,0.1-0.1,0.2l-4.3,5c-0.7,0.8-0.8,2-0.1,2.9
	c2.9,3.9,4.4,8.6,4.3,13.5c0,3.9-1,7.7-2.9,11.1c-1.4,2.4-3.2,4.6-5.3,6.4c-1,0.8-1.1,2.3-0.3,3.3c0.1,0.2,0.3,0.3,0.5,0.5
	C432.9,124.3,434.7,126.1,436.2,128.2z M418.4,111c4.8-5.4,4.3-13.7-1.1-18.5c-4.9-4.4-12.4-4.4-17.4-0.1c-2.4,2.5-3.7,5.8-3.5,9.3
	c-0.1,3.4,1.1,6.8,3.5,9.3c2.4,2.4,5.8,3.7,9.2,3.6C412.7,114.7,416,113.4,418.4,111z"/>
<path class="st1" d="M451.3,67.9c-3.7-3.7-3.8-9.7-0.1-13.4c0,0,0.1-0.1,0.1-0.1c4.2-3.5,10.3-3.5,14.5,0c3.7,3.7,3.8,9.7,0.1,13.4
	c0,0-0.1,0.1-0.1,0.1C461.6,71.4,455.5,71.4,451.3,67.9L451.3,67.9z M452.3,75.9h12.5c1.3,0,2.3,1.1,2.3,2.3v49.6
	c0,1.3-1.1,2.3-2.3,2.4h-12.6c-1.3,0-2.3-1.1-2.3-2.4V78.2C450,77,451,75.9,452.3,75.9L452.3,75.9z"/>
<path class="st1" d="M518.4,126.1c0.4,1.2-0.2,2.5-1.4,2.9c-3.9,1.6-8.1,2.3-12.4,2.3c-5.9,0-10.6-1.7-14.1-5s-5.2-8.7-5.2-16.1V92
	c0-1.3-1-2.3-2.3-2.3l0,0h-4.5c-1.3,0-2.3-1.1-2.3-2.3v-9c0-1.3,1.1-2.3,2.3-2.3h4.5c1.3,0,2.3-1,2.3-2.3c0,0,0,0,0,0v-9.1
	c0-1.2,0.9-2.2,2.1-2.3l12.5-1.4c1.3-0.1,2.4,0.8,2.6,2.1c0,0.1,0,0.2,0,0.2v10.4c0,1.3,1.1,2.3,2.3,2.3h8.8c1.3,0,2.3,1.1,2.3,2.3
	v9c0,1.3-1,2.3-2.3,2.3h-8.9c-1.3,0-2.3,1-2.3,2.3v18.2c-0.1,1.8,0.4,3.6,1.7,4.9c1.2,1.1,2.8,1.7,4.5,1.6c1.4,0,2.8-0.2,4.1-0.7
	c1.2-0.4,2.5,0.3,2.9,1.5c0,0,0,0,0,0L518.4,126.1z"/>
<path class="st1" d="M583.3,78.2v49.6c0,1.3-1,2.3-2.3,2.4h-10.6c-1.2,0-2.1-0.9-2.3-2v-0.3c-0.2-1.3-1.4-2.1-2.7-1.9
	c-0.4,0.1-0.8,0.2-1.1,0.5c-4.3,3.2-9.6,4.9-14.9,4.8c-4.7,0.1-9.4-1.2-13.5-3.6c-3.9-2.4-7.1-5.9-9.2-10c-4.4-9.3-4.4-20,0-29.3
	c2.1-4.1,5.2-7.6,9.2-10c4.1-2.4,8.7-3.6,13.5-3.6c3.5,0,6.9,0.6,10.1,1.9c1.7,0.7,3.4,1.6,4.9,2.8c1,0.8,2.5,0.6,3.3-0.4
	c0.2-0.3,0.4-0.7,0.5-1v-0.2c0.2-1.1,1.2-1.9,2.3-1.9h10.6C582.2,75.9,583.3,76.9,583.3,78.2C583.3,78.2,583.3,78.2,583.3,78.2z
	 M562.6,113c4.8-5.7,4.8-14.1,0-19.9c-2.4-2.5-5.8-3.9-9.3-3.8c-3.5-0.1-6.9,1.3-9.3,3.8c-4.8,5.7-4.8,14,0,19.8
	c2.4,2.6,5.8,4,9.3,3.8C556.8,116.9,560.2,115.5,562.6,113z"/>
<path class="st1" d="M598.6,53.3h12.5c1.3,0,2.3,1.1,2.3,2.3v72.2c0,1.3-1.1,2.3-2.3,2.4h-12.5c-1.3,0-2.3-1.1-2.3-2.4V55.6
	C596.2,54.3,597.3,53.3,598.6,53.3z"/>
<path class="st2" d="M21.4,156c-0.3,0-0.6-0.1-0.8-0.2c-0.3-0.1-0.6-0.3-0.9-0.5c-0.3-0.2-0.5-0.5-0.7-0.7c-0.2-0.3-0.3-0.6-0.3-0.9
	c0-0.7,0.2-1.4,0.6-2c0.4-0.6,0.9-1.3,1.4-1.8c0.5-0.6,1-1.2,1.4-1.8c0.4-0.5,0.6-1.1,0.6-1.8c0-0.4-0.1-0.9-0.3-1.3
	c-0.3-0.4-0.7-0.6-1.2-0.6c-0.9,0-1.7,0.3-2.4,0.7c-1.8,1-3.2,2.6-4.1,4.4c-0.4,0.8-0.7,1.8-0.7,2.7c0,0.7,0.2,1.5,0.7,2.1
	c0.5,0.5,1,1,1.7,1.3c0.7,0.4,1.4,0.7,2.1,0.9c0.7,0.2,1.4,0.5,2,0.8c1,0.5,1.8,1.1,2.4,2c0.6,0.9,0.8,2,0.5,3.1
	c-0.2,1.1-0.7,2.1-1.4,3c-0.7,0.9-1.5,1.6-2.4,2.2c-0.9,0.6-1.9,1-3,1.3c-1.1,0.3-2.1,0.4-3.2,0.4c-0.9,0-1.7-0.1-2.5-0.4
	c-0.8-0.3-1.5-0.7-2.1-1.2c-1.3-1.2-1.8-2.9-1.3-4.6c0.2-0.9,0.6-1.8,1.2-2.5c0.1-0.2,0.3-0.4,0.4-0.5c0.2-0.2,0.4-0.4,0.6-0.6
	c0.2-0.2,0.4-0.3,0.7-0.5c0.2-0.1,0.4-0.2,0.7-0.2c0.3,0,0.6,0.1,0.9,0.2c0.3,0.1,0.6,0.3,0.9,0.6c0.3,0.2,0.5,0.5,0.7,0.7
	c0.2,0.2,0.3,0.5,0.4,0.8c0,0.1,0,0.3,0,0.4c0,0.1-0.1,0.2-0.2,0.2c-0.4,0-0.9,0.1-1.2,0.3c-0.4,0.2-0.8,0.5-1.2,0.8
	c-0.3,0.3-0.6,0.7-0.9,1.1c-0.2,0.4-0.3,0.8-0.3,1.2c0,0.3,0.1,0.6,0.3,0.9c0.2,0.2,0.4,0.4,0.7,0.6c0.3,0.1,0.6,0.2,0.9,0.3
	c0.3,0.1,0.6,0.1,0.9,0.1c0.7,0,1.3-0.1,2-0.3c0.8-0.2,1.5-0.5,2.2-0.8c0.6-0.4,1.2-0.8,1.7-1.4c0.5-0.5,0.7-1.2,0.7-1.9
	c-0.1-1-0.6-2-1.6-2.5c-0.8-0.5-1.7-1-2.5-1.3c-0.8-0.4-1.7-0.8-2.5-1.3c-0.8-0.5-1.4-1.1-2-1.8c-0.6-0.8-1-1.7-1.1-2.7
	c-0.2-1.3,0-2.6,0.5-3.9c0.5-1.3,1.3-2.5,2.2-3.5c1-1,2.1-1.9,3.4-2.6c1.3-0.7,2.7-1,4.1-1c1,0,2,0.2,2.9,0.7
	c0.8,0.4,1.4,1.1,1.8,1.9c0.3,0.2,0.5,0.5,0.7,0.9c0.2,0.3,0.2,0.6,0.2,0.9c0,0.8-0.2,1.6-0.6,2.2c-0.4,0.8-0.9,1.6-1.4,2.3
	s-0.9,1.6-1.4,2.3c-0.4,0.7-0.6,1.5-0.6,2.2C21.6,155.9,21.5,156,21.4,156z"/>
<path class="st2" d="M30,152.1c0.5-0.2,1-0.3,1.5-0.2c0.5,0.1,1,0.3,1.4,0.6c1.2,0,2.3,0.4,3.2,1.1c0.4,0.3,0.7,0.7,1,1.1
	c0.2,0.4,0.4,0.9,0.4,1.3c0,0.9-0.1,1.9-0.3,2.8c-0.2,1-0.5,1.9-0.9,2.8c0.9-0.8,1.7-1.7,2.4-2.6c0.7-1,1.3-2,1.7-3.1
	c0.1-0.1,0.2-0.3,0.3-0.3c0.1-0.1,0.3-0.1,0.4,0c0.1,0.1,0.2,0.2,0.3,0.3c0.1,0.1,0.1,0.3,0,0.4c-1.2,3.1-3.4,5.7-6.3,7.5
	c-0.7,1.2-1.6,2.2-2.6,3c-0.9,0.8-2.1,1.2-3.3,1.2c-0.7,0-1.3-0.2-1.9-0.5c-0.6-0.3-1.1-0.7-1.4-1.2c-0.4-0.5-0.7-1-0.9-1.6
	c-0.2-0.5-0.3-1.1-0.3-1.7c0-1.1,0.1-2.1,0.4-3.1c0.2-1.1,0.6-2.2,1.1-3.2c0.4-1,1-1.9,1.7-2.8C28.4,153.2,29.1,152.5,30,152.1z
	 M28.4,165.2c0.1,0,0.3-0.1,0.4-0.1c0.4,0,0.8-0.1,1.2-0.2c0.3-0.1,0.7-0.2,1.2-0.3c0.4-0.6,0.7-1.2,1-1.8c0.6-1.5,1.1-3,1.4-4.6
	c0.1-0.7,0.2-1.4,0.2-2.1c0-0.5-0.1-1.1-0.2-1.6c-0.1-0.3-0.4-0.6-0.7-0.7c-0.3-0.1-0.7,0-0.9,0.1c-0.4,0.2-0.7,0.5-1,0.8
	c-0.6,0.7-1.1,1.5-1.5,2.4c-0.4,0.9-0.8,1.9-1,2.9c-0.2,0.9-0.3,1.9-0.3,2.9C28,163.7,28.1,164.5,28.4,165.2L28.4,165.2z"/>
<path class="st2" d="M38,164.1c0.1-1.3,0.3-2.7,0.5-4.3s0.5-3.2,0.9-4.8s0.7-3.2,1.1-4.7s0.8-2.9,1.2-4.1c0.3-1,0.7-2,1.1-2.9
	c0.4-0.7,0.6-1.1,0.9-1.1c0.3,0,0.6,0.1,0.9,0.2c0.4,0.1,0.8,0.3,1.2,0.4c0.3,0.1,0.7,0.3,1,0.5c0.3,0.2,0.4,0.4,0.4,0.5
	c0,0.1,0,0.1-0.1,0.2c-0.1,0.1-0.2,0.2-0.3,0.3c-0.1,0.1-0.2,0.2-0.2,0.3c-0.7,1.3-1.2,2.6-1.6,3.9c-0.5,1.7-1.1,3.6-1.6,5.6
	s-1,4-1.4,5.9c-0.4,2-0.7,3.7-0.9,5.1c-0.1,0.5,0,0.7,0.1,0.8s0.3,0,0.6-0.3c0.6-0.7,1.2-1.4,1.6-2.2c0.5-0.9,1-1.7,1.4-2.6
	s0.8-1.8,1.2-2.6s0.6-1.6,0.9-2.3c0.1-0.1,0.2-0.3,0.3-0.3c0.1-0.1,0.3-0.1,0.4,0c0.1,0.1,0.3,0.2,0.3,0.3c0.1,0.1,0.1,0.3,0,0.4
	c-0.2,0.4-0.4,1.1-0.7,1.8s-0.6,1.6-1,2.4s-0.8,1.7-1.3,2.6c-0.5,0.8-1,1.6-1.5,2.4c-0.5,0.6-1,1.2-1.6,1.8
	c-0.5,0.4-1.1,0.7-1.7,0.7c-0.5,0-0.9-0.1-1.3-0.4c-0.3-0.3-0.5-0.6-0.6-1c-0.1-0.4-0.2-0.8-0.2-1.3C37.9,164.9,37.9,164.5,38,164.1
	z"/>
<path class="st2" d="M51.5,165.3c0.1-0.3,0.1-0.5,0.1-0.8c0-0.2,0-0.5,0.1-0.8c0,0,0-0.1,0-0.1c0,0,0-0.1,0-0.1
	c-0.5,1.1-1.2,2.2-2,3.2c-0.6,0.8-1.5,1.3-2.5,1.3c-0.4,0-0.8-0.1-1.1-0.3c-0.4-0.2-0.7-0.4-0.9-0.7c-0.3-0.3-0.5-0.6-0.6-0.9
	c-0.1-0.3-0.2-0.6-0.2-0.9c0.1-0.2,0.1-0.5,0.1-0.8c0-0.3,0.1-0.5,0.1-0.8c0.3-2,0.7-3.9,1.2-5.8c0.5-1.8,1.1-3.6,1.8-5.4
	c0.2-0.4,0.4-0.5,0.6-0.5c0.2,0,0.4,0.1,0.7,0.1c0.5,0.2,1,0.4,1.4,0.7c0.2,0.1,0.3,0.2,0.5,0.4c0.2,0.1,0.3,0.3,0.2,0.5
	c0,0,0,0,0,0.1c-0.1,0.2-0.2,0.4-0.3,0.7c-0.3,0.8-0.6,1.6-0.9,2.5s-0.5,1.7-0.8,2.6s-0.5,1.8-0.7,2.6s-0.4,1.6-0.5,2.4
	c-0.1,0.3-0.1,0.7,0,1.1c0.1,0.2,0.3,0.4,0.5,0.4c0.4-0.1,0.8-0.3,1-0.7c0.4-0.5,0.8-1.1,1.1-1.7c0.4-0.7,0.7-1.4,1.1-2.3
	s0.7-1.7,1-2.4s0.5-1.5,0.8-2.1s0.4-1.1,0.5-1.4c0.2-0.5,0.3-0.9,0.5-1.4s0.3-0.9,0.5-1.3s0.4-0.5,0.6-0.5c0.2,0,0.4,0.1,0.7,0.1
	c0.5,0.2,1,0.4,1.4,0.7c0.2,0.1,0.3,0.2,0.5,0.4c0.2,0.1,0.3,0.3,0.2,0.5c0,0,0,0,0,0.1c-0.1,0.2-0.2,0.4-0.3,0.7
	c-0.3,0.9-0.7,1.8-1,2.8s-0.6,2-0.9,3s-0.5,1.9-0.7,2.9s-0.4,1.7-0.5,2.5c0,0.3,0,0.5,0.1,0.5c0.2,0,0.4-0.1,0.5-0.2
	c0.6-0.7,1.2-1.4,1.7-2.2c0.5-0.8,1-1.7,1.5-2.6c0.5-0.9,0.9-1.8,1.2-2.7s0.7-1.7,0.9-2.4c0.1-0.1,0.2-0.3,0.3-0.3
	c0.1-0.1,0.3-0.1,0.4,0c0.1,0,0.2,0.1,0.3,0.3c0.1,0.1,0.1,0.3,0,0.4l-0.7,1.8c-0.3,0.8-0.6,1.6-1,2.4s-0.8,1.7-1.3,2.6
	c-0.5,0.8-1,1.6-1.5,2.4c-0.5,0.7-1,1.2-1.7,1.8c-0.5,0.4-1.1,0.7-1.7,0.7c-0.7,0-1.3-0.3-1.7-0.9C51.7,166.6,51.5,165.9,51.5,165.3
	z"/>
<path class="st2" d="M60.3,168.2c-0.6,0-1.1-0.1-1.6-0.4c-0.4-0.2-0.7-0.5-1-0.9c-0.2-0.4-0.3-0.8-0.3-1.2c0-0.5,0.2-0.9,0.4-1.3
	c0.3-0.5,0.7-0.9,1.2-1.1c0.5-0.2,1-0.4,1.6-0.4l1.3-0.1c0.4,0,0.8-0.1,1.2-0.2c-0.1-0.6-0.3-1.2-0.6-1.7l-1.1-1.6
	c-0.4-0.5-0.7-1.1-1-1.7c-0.3-0.6-0.5-1.3-0.4-2.1c0-0.6,0.1-1.2,0.4-1.7c0.2-0.5,0.6-0.9,1-1.3c0.8-0.7,1.9-1.1,3-1.1
	c0.4,0,0.8,0.1,1.1,0.3c0.4,0.2,0.8,0.5,1.1,0.9c0.3,0.3,0.6,0.7,0.8,1.1c0.2,0.4,0.3,0.7,0.3,1.1c0,0.2-0.1,0.5-0.1,0.7
	c-0.1,0.3-0.2,0.5-0.4,0.8c-0.1,0.2-0.3,0.4-0.5,0.6c-0.1,0.1-0.3,0.2-0.5,0.2c-0.5,0-1-0.1-1.4-0.3c-0.5-0.2-0.7-0.5-0.7-0.7
	c0-0.1,0-0.1,0.1-0.2c0.4,0,0.7-0.3,0.9-0.6c0.2-0.4,0.3-0.8,0.4-1.2c0-0.2,0-0.4-0.2-0.6c-0.1-0.2-0.3-0.3-0.5-0.3
	c-0.2,0-0.5,0.1-0.6,0.3c-0.2,0.2-0.3,0.4-0.5,0.7c-0.1,0.3-0.2,0.5-0.3,0.8c-0.1,0.2-0.1,0.5-0.1,0.7c0,0.5,0.1,1,0.4,1.5
	c0.2,0.5,0.5,0.9,0.8,1.3l1,1.3c0.3,0.4,0.6,0.9,0.8,1.3c1.1-0.6,2-1.4,2.7-2.3c0.7-1,1.2-2.1,1.6-3.2c0-0.1,0.1-0.3,0.3-0.3
	c0.3-0.1,0.6,0,0.7,0.2c0.1,0.1,0.1,0.3,0,0.4c-0.4,1.4-1.1,2.7-2,3.8c-0.8,1-1.8,1.9-3,2.5c0.1,0.8,0,1.6-0.4,2.4
	c-0.4,0.7-0.9,1.3-1.5,1.8c-0.6,0.5-1.4,0.9-2.2,1.1C61.9,168.1,61.1,168.2,60.3,168.2z M63.1,163.9c-0.5,0.1-1,0.2-1.5,0.1
	c-0.5,0-1.1,0-1.6,0.2c-0.4,0.1-0.7,0.3-0.9,0.6c-0.2,0.3-0.2,0.6-0.1,0.9c0.1,0.3,0.3,0.6,0.6,0.7c0.4,0.2,0.8,0.2,1.2,0
	c0.6-0.2,1.1-0.6,1.5-1.1C62.6,165,62.9,164.5,63.1,163.9z"/>
<path class="st2" d="M68.2,165.3c0.1-0.2,0.1-0.5,0.1-0.8c0-0.3,0.1-0.5,0.1-0.8c0.3-2,0.7-3.9,1.2-5.8c0.5-1.8,1.1-3.6,1.8-5.4
	c0.2-0.4,0.4-0.5,0.6-0.5c0.2,0,0.4,0,0.7,0.1c0.3,0.1,0.5,0.2,0.8,0.3c0.2,0.1,0.4,0.2,0.7,0.4c0.2,0.1,0.3,0.2,0.5,0.4
	c0.2,0.1,0.3,0.4,0.1,0.5c0,0,0,0,0,0c-0.1,0.2-0.2,0.4-0.3,0.7c-0.4,0.9-0.7,1.8-1,2.8s-0.6,2-0.9,3s-0.5,1.9-0.7,2.9
	s-0.4,1.7-0.5,2.5c0,0.3,0,0.5,0.1,0.5c0.2,0,0.3-0.1,0.4-0.2c0.7-0.7,1.2-1.4,1.7-2.2c0.5-0.8,1-1.7,1.5-2.6
	c0.4-0.9,0.8-1.8,1.2-2.7s0.7-1.7,0.9-2.4c0.1-0.1,0.2-0.3,0.3-0.3c0.1-0.1,0.3-0.1,0.4,0c0.1,0.1,0.2,0.2,0.3,0.3
	c0.1,0.1,0.1,0.3,0,0.4c-0.2,0.5-0.4,1.1-0.7,1.8c-0.3,0.8-0.6,1.6-1,2.4s-0.9,1.7-1.3,2.6c-0.4,0.8-1,1.6-1.5,2.4
	c-0.5,0.7-1,1.2-1.7,1.8c-0.5,0.4-1.1,0.7-1.7,0.7c-0.3,0-0.7-0.1-0.9-0.2c-0.3-0.2-0.5-0.4-0.7-0.6c-0.2-0.3-0.3-0.6-0.4-0.9
	C68.2,165.9,68.2,165.6,68.2,165.3z M74.7,144.8c0.4-0.7,0.7-1.1,1-1.1c0.4,0.1,0.7,0.2,1.1,0.4c0.5,0.2,0.9,0.4,1.3,0.7
	c0.6,0.4,0.6,0.9,0.2,1.6l-0.8,1.2c-0.3,0.5-0.7,1-1.1,1.5c-0.3,0.4-0.7,0.9-1.1,1.3c-0.2,0.3-0.5,0.5-0.9,0.5
	c-0.5,0.1-0.9-0.2-1-0.7c0,0,0-0.1,0-0.1c-0.1-0.6-0.1-1.3,0.1-1.9c0.2-0.7,0.4-1.4,0.6-2.1C74.3,145.5,74.5,145,74.7,144.8z"/>
<path class="st2" d="M94,166.2c0-1.2,0.1-2.4,0.2-3.6c0.2-1.4,0.4-2.9,0.6-4.4s0.6-3.1,0.9-4.7s0.7-3.1,1.1-4.5
	c-1.5,2.6-3,5.3-4.2,8.1c-1.2,2.7-2.4,5.5-3.5,8.4c0,0.2-0.1,0.3-0.2,0.4c0,0.2-0.1,0.2-0.3,0.2c-0.2-0.1-0.3-0.1-0.4-0.3
	c-0.2-0.2-0.3-0.3-0.4-0.5c-0.2-0.2-0.3-0.4-0.3-0.7c0-0.2-0.1-0.5-0.1-0.8c-0.3-2.3-0.3-4.6-0.1-6.9c0.2-2.3,0.4-4.8,0.7-7.4
	c-0.6,1.5-1.1,3.2-1.6,5c-0.5,1.8-1,3.5-1.4,5.2s-0.8,3.2-1,4.6c-0.2,1.1-0.4,2.1-0.5,3.2c0,0.3-0.2,0.4-0.5,0.4
	c-0.3,0-0.6-0.1-0.8-0.2c-0.3-0.1-0.6-0.3-0.8-0.4c-0.2-0.2-0.5-0.4-0.6-0.6c-0.2-0.2-0.3-0.4-0.3-0.7c0.1-1.2,0.2-2.4,0.4-3.5
	c0.2-1.4,0.5-2.8,0.8-4.3s0.7-3.1,1.1-4.6s0.8-3,1.3-4.4s0.9-2.6,1.3-3.7c0.3-0.9,0.7-1.7,1.2-2.5c0.3-0.5,0.6-0.8,0.8-0.8
	c0.3,0,0.6,0.1,0.9,0.2c0.4,0.1,0.8,0.3,1.2,0.5c0.3,0.2,0.7,0.4,1,0.6c0.3,0.2,0.4,0.4,0.4,0.5c0,0.1-0.1,0.1-0.1,0.2
	c0,0.1-0.1,0.2-0.1,0.3c-0.6,2.7-0.9,5.4-1.1,8.1c-0.2,2.5-0.2,5.1-0.1,7.6c1.3-2.9,2.8-5.7,4.3-8.4c1.5-2.7,3.2-5.4,5-8l0.3-0.4
	c0.1-0.2,0.3-0.3,0.4-0.5c0.1-0.2,0.3-0.3,0.5-0.4c0.1-0.1,0.3-0.2,0.4-0.2c0.3,0,0.6,0.1,0.8,0.2c0.3,0.1,0.7,0.3,1,0.4
	c0.3,0.1,0.6,0.3,0.9,0.5c0.3,0.2,0.4,0.4,0.4,0.5s0,0.2-0.1,0.2c-0.1,0.1-0.2,0.2-0.3,0.3c-0.1,0.1-0.2,0.2-0.2,0.3
	c-0.5,0.9-0.9,1.9-1.2,2.9c-0.4,1.2-0.9,2.6-1.2,4s-0.8,3-1.2,4.6s-0.7,3.1-1,4.6s-0.5,2.8-0.7,3.9c-0.1,0.9-0.2,1.8-0.2,2.7
	c0,0.2-0.1,0.4-0.3,0.5c0,0-0.1,0-0.1,0c-0.3,0-0.6-0.1-0.8-0.2c-0.3-0.1-0.6-0.2-0.9-0.4c-0.3-0.1-0.5-0.3-0.7-0.6
	C94.1,166.7,94,166.5,94,166.2z"/>
<path class="st2" d="M106.8,165.3c0.1-0.2,0.1-0.5,0.1-0.8c0-0.3,0.1-0.5,0.1-0.8c0-0.1,0-0.2,0-0.3c-0.5,1.1-1.2,2.2-2,3.2
	c-0.6,0.8-1.5,1.3-2.5,1.3c-0.7,0-1.4-0.2-1.9-0.7c-0.5-0.5-0.7-1.1-0.8-1.8c-0.1-1.2-0.1-2.4,0.1-3.6c0.2-1.3,0.6-2.7,1.1-3.9
	c0.5-1.2,1.1-2.4,1.9-3.5c0.7-1,1.6-1.8,2.6-2.4c0.3-0.2,0.6-0.3,1-0.3c0.3,0,0.7,0.1,1,0.2c0.3,0.1,0.7,0.3,1,0.5l1.1,0.6
	c0.1-0.1,0.1-0.2,0.1-0.2c0-0.1,0-0.2,0.1-0.3c0.2-0.4,0.4-0.5,0.6-0.5c0.2,0,0.5,0,0.7,0.1c0.5,0.2,1,0.4,1.4,0.7
	c0.2,0.1,0.3,0.2,0.5,0.4c0.2,0.1,0.3,0.3,0.2,0.5c0,0,0,0,0,0.1c-0.1,0.2-0.2,0.4-0.3,0.7c-0.3,0.9-0.6,1.8-0.9,2.8s-0.6,2-0.8,3
	s-0.5,1.9-0.6,2.9l-0.4,2.4c0,0.3,0,0.5,0.1,0.5c0.2,0,0.3-0.1,0.4-0.2c0.7-0.7,1.2-1.4,1.7-2.2c0.5-0.8,1-1.7,1.4-2.6
	c0.4-0.9,0.8-1.8,1.1-2.7s0.6-1.7,0.9-2.4c0.1-0.1,0.2-0.3,0.3-0.3c0.1-0.1,0.3-0.1,0.4,0c0.1,0.1,0.2,0.2,0.3,0.3
	c0.1,0.1,0.1,0.3,0,0.4c-0.2,0.4-0.4,1.1-0.7,1.8s-0.6,1.6-1,2.4s-0.8,1.7-1.3,2.6c-0.4,0.8-0.9,1.6-1.5,2.4c-0.5,0.7-1,1.2-1.6,1.8
	c-0.5,0.4-1,0.7-1.6,0.7c-0.3,0-0.7-0.1-0.9-0.2c-0.3-0.2-0.5-0.4-0.7-0.6c-0.2-0.3-0.3-0.6-0.4-0.9
	C106.8,165.9,106.8,165.6,106.8,165.3z M103.7,165.9c0.4-0.1,0.8-0.3,1-0.7c0.4-0.5,0.8-1.1,1.1-1.7c0.4-0.7,0.7-1.5,1-2.3
	c0.3-0.8,0.6-1.7,0.9-2.4s0.5-1.5,0.7-2.1s0.4-1.1,0.5-1.4s0.1-0.4,0.2-0.5s0.1-0.3,0.2-0.5c-0.2-0.4-0.6-0.6-1-0.5
	c-0.8,0-1.5,0.5-2,1.1c-0.7,0.8-1.2,1.8-1.6,2.8c-0.5,1.1-0.8,2.2-1.1,3.4c-0.2,1-0.4,2-0.5,3.1c0,0.2,0,0.3,0,0.5
	c0,0.2,0,0.4,0,0.6c0,0.2,0.1,0.4,0.2,0.5C103.3,165.8,103.5,165.9,103.7,165.9z"/>
<path class="st2" d="M115.4,168.2c-0.6,0-1.1-0.1-1.6-0.4c-0.4-0.2-0.7-0.5-1-0.9c-0.2-0.4-0.3-0.8-0.3-1.2c0-0.5,0.2-0.9,0.4-1.3
	c0.3-0.5,0.7-0.9,1.2-1.1c0.5-0.2,1-0.3,1.6-0.4l1.3-0.1c0.4,0,0.8-0.1,1.2-0.2c-0.1-0.6-0.3-1.2-0.6-1.7c-0.3-0.5-0.7-1-1.1-1.6
	c-0.4-0.5-0.7-1.1-1-1.7c-0.3-0.6-0.5-1.3-0.4-2.1c0-0.6,0.1-1.2,0.4-1.7c0.2-0.5,0.6-0.9,1-1.3c0.4-0.3,0.9-0.6,1.4-0.8
	c0.5-0.2,1.1-0.3,1.6-0.3c0.4,0,0.8,0.1,1.1,0.3c0.4,0.2,0.8,0.5,1.1,0.9c0.3,0.3,0.6,0.7,0.8,1.1c0.2,0.4,0.3,0.7,0.3,1.1
	c0,0.2-0.1,0.5-0.1,0.7c-0.1,0.3-0.2,0.5-0.4,0.8c-0.1,0.2-0.3,0.4-0.5,0.6c-0.1,0.1-0.3,0.2-0.5,0.2c-0.5,0-1-0.1-1.4-0.3
	c-0.5-0.2-0.7-0.5-0.7-0.7c0-0.1,0-0.1,0.1-0.2c0.4,0,0.7-0.3,0.9-0.6c0.2-0.4,0.3-0.8,0.4-1.2c0-0.2,0-0.4-0.2-0.6
	c-0.1-0.2-0.3-0.3-0.5-0.3c-0.2,0-0.5,0.1-0.6,0.3c-0.2,0.2-0.3,0.4-0.5,0.7c-0.1,0.3-0.2,0.5-0.3,0.8c-0.1,0.2-0.1,0.5-0.1,0.7
	c0,0.5,0.1,1,0.4,1.5c0.2,0.5,0.5,0.9,0.8,1.3l1,1.3c0.3,0.4,0.6,0.8,0.8,1.3c1.1-0.6,2-1.4,2.7-2.3c0.7-1,1.2-2.1,1.6-3.2
	c0-0.1,0.1-0.3,0.3-0.3c0.3-0.1,0.6,0,0.7,0.2c0.1,0.1,0.1,0.3,0,0.4c-0.4,1.4-1.1,2.7-2,3.8c-0.8,1-1.8,1.9-3,2.5
	c0.1,0.8,0,1.6-0.4,2.4c-0.4,0.7-0.9,1.3-1.5,1.8c-0.7,0.5-1.4,0.9-2.2,1.1C117,168.1,116.2,168.2,115.4,168.2z M118.2,163.9
	c-0.5,0.1-1,0.2-1.5,0.1c-0.5,0-1.1,0-1.6,0.2c-0.4,0.1-0.7,0.3-0.9,0.6c-0.2,0.3-0.2,0.6-0.1,0.9c0.1,0.3,0.3,0.6,0.6,0.7
	c0.4,0.2,0.8,0.2,1.2,0c0.6-0.2,1.1-0.6,1.5-1.1C117.7,165,118,164.5,118.2,163.9z"/>
<path class="st2" d="M130.2,165.3c0.1-0.3,0.1-0.5,0.1-0.8c0-0.3,0-0.5,0.1-0.8c0-0.1,0-0.2,0-0.3c-0.5,1.1-1.2,2.2-2,3.2
	c-0.6,0.8-1.5,1.3-2.4,1.3c-0.7,0-1.4-0.2-1.9-0.7c-0.5-0.5-0.7-1.1-0.8-1.8c-0.1-1.2-0.1-2.4,0.1-3.6c0.2-1.3,0.6-2.7,1.1-3.9
	c0.5-1.2,1.1-2.4,1.9-3.5c0.7-1,1.6-1.8,2.6-2.4c0.3-0.2,0.6-0.3,1-0.3c0.3,0,0.7,0.1,1,0.2c0.4,0.1,0.7,0.3,1,0.5l1.1,0.6
	c0.1-0.1,0.1-0.2,0.1-0.2c0-0.1,0-0.2,0.1-0.3c0.2-0.4,0.4-0.5,0.6-0.5c0.2,0,0.4,0,0.7,0.1c0.3,0.1,0.5,0.2,0.7,0.3
	c0.2,0.1,0.5,0.2,0.7,0.4c0.2,0.1,0.4,0.2,0.5,0.4c0.2,0.1,0.3,0.4,0.1,0.5c0,0,0,0,0,0c-0.1,0.2-0.2,0.4-0.3,0.7
	c-0.3,0.9-0.6,1.8-0.9,2.8s-0.6,2-0.8,3s-0.5,1.9-0.6,2.9s-0.4,1.7-0.5,2.5c0,0.3,0,0.5,0.1,0.5c0.2,0,0.3-0.1,0.4-0.2
	c0.7-0.7,1.2-1.4,1.7-2.2c0.5-0.8,1-1.7,1.4-2.6c0.4-0.9,0.8-1.8,1.1-2.7s0.6-1.7,0.9-2.4c0.1-0.1,0.2-0.3,0.3-0.3
	c0.1-0.1,0.3-0.1,0.4,0c0.1,0.1,0.2,0.2,0.3,0.3c0.1,0.1,0.1,0.3,0,0.4c-0.2,0.4-0.4,1.1-0.7,1.8s-0.6,1.6-1,2.4s-0.8,1.7-1.3,2.6
	c-0.4,0.8-0.9,1.6-1.5,2.4c-0.5,0.6-1,1.2-1.6,1.8c-0.5,0.4-1.1,0.7-1.7,0.7c-0.3,0-0.7-0.1-1-0.2c-0.3-0.2-0.5-0.4-0.7-0.6
	C130.4,166.6,130.2,166,130.2,165.3L130.2,165.3z M127.1,165.9c0.4-0.1,0.8-0.3,1-0.7c0.4-0.5,0.8-1.1,1.1-1.7
	c0.4-0.7,0.7-1.5,1-2.3c0.3-0.8,0.6-1.7,0.9-2.4s0.5-1.5,0.7-2.1s0.4-1.1,0.5-1.4s0.1-0.4,0.2-0.5c0.1-0.2,0.1-0.3,0.2-0.5
	c-0.2-0.3-0.6-0.6-1-0.5c-0.8,0-1.5,0.5-1.9,1.1c-0.7,0.8-1.2,1.8-1.6,2.8c-0.5,1.1-0.8,2.2-1.1,3.4c-0.3,1-0.4,2-0.5,3.1
	c0,0.1,0,0.3,0,0.5c0,0.2,0,0.4,0,0.6c0,0.2,0.1,0.4,0.2,0.5C126.8,165.8,127,165.9,127.1,165.9z"/>
<path class="st2" d="M136.8,164.1c0.1-1.3,0.3-2.7,0.5-4.3s0.5-3.2,0.9-4.8s0.7-3.2,1.1-4.7s0.8-2.9,1.2-4.1c0.3-1,0.7-2,1.1-2.9
	c0.4-0.7,0.7-1.1,0.9-1.1c0.3,0,0.6,0.1,0.9,0.2c0.4,0.1,0.8,0.3,1.2,0.4c0.3,0.1,0.7,0.3,1,0.5c0.3,0.2,0.4,0.4,0.4,0.5
	c0,0.1,0,0.1-0.1,0.2c-0.1,0.1-0.2,0.2-0.3,0.3c-0.1,0.1-0.2,0.2-0.2,0.3c-0.6,1.3-1.2,2.6-1.6,3.9c-0.6,1.7-1.1,3.6-1.6,5.6
	s-0.9,4-1.3,5.9c-0.4,2-0.7,3.7-0.9,5.1c-0.1,0.5,0,0.7,0.1,0.8s0.3,0,0.6-0.3c0.6-0.7,1.2-1.4,1.6-2.2c0.5-0.9,1-1.7,1.4-2.6
	s0.8-1.8,1.2-2.6s0.6-1.6,0.9-2.3c0.1-0.1,0.2-0.3,0.3-0.3c0.1-0.1,0.3-0.1,0.4,0c0.1,0.1,0.2,0.2,0.3,0.3c0.1,0.1,0.1,0.3,0,0.4
	c-0.2,0.4-0.4,1.1-0.7,1.8s-0.6,1.6-1,2.4s-0.8,1.7-1.3,2.6c-0.4,0.8-1,1.6-1.5,2.4c-0.5,0.6-1,1.2-1.6,1.8
	c-0.5,0.4-1.1,0.7-1.7,0.7c-0.5,0-0.9-0.1-1.3-0.4c-0.3-0.3-0.5-0.6-0.6-1c-0.1-0.4-0.2-0.8-0.2-1.3
	C136.7,164.9,136.7,164.5,136.8,164.1z"/>
<path class="st2" d="M150.2,165.3c0-0.3,0.1-0.5,0.1-0.8c0-0.3,0-0.5,0.1-0.8c0-0.1,0-0.2,0-0.3c-0.5,1.1-1.2,2.2-2,3.2
	c-0.6,0.8-1.5,1.3-2.4,1.3c-0.7,0-1.4-0.2-1.9-0.7c-0.5-0.5-0.7-1.1-0.8-1.8c-0.1-1.2-0.1-2.4,0.1-3.6c0.2-1.3,0.6-2.7,1.1-3.9
	c0.5-1.2,1.1-2.4,1.9-3.5c0.7-1,1.6-1.8,2.6-2.4c0.3-0.2,0.6-0.3,1-0.3c0.3,0,0.7,0.1,1,0.2c0.3,0.1,0.7,0.3,1,0.5l1.1,0.6
	c0.1-0.1,0.1-0.2,0.1-0.2c0-0.1,0-0.2,0.1-0.3c0.2-0.4,0.4-0.5,0.6-0.5c0.2,0,0.4,0.1,0.7,0.1c0.5,0.2,1,0.4,1.4,0.7
	c0.2,0.1,0.3,0.2,0.5,0.4c0.2,0.1,0.3,0.4,0.2,0.5c0,0,0,0,0,0c-0.1,0.2-0.2,0.4-0.3,0.7c-0.3,0.9-0.6,1.8-0.9,2.8s-0.6,2-0.8,3
	s-0.5,1.9-0.6,2.9s-0.4,1.7-0.5,2.5c-0.1,0.3,0,0.5,0.1,0.5c0.2,0,0.3-0.1,0.4-0.2c0.6-0.7,1.2-1.4,1.7-2.2c0.5-0.8,1-1.7,1.4-2.6
	c0.4-0.9,0.8-1.8,1.1-2.7s0.6-1.7,0.9-2.4c0.1-0.1,0.2-0.3,0.3-0.3c0.1-0.1,0.3-0.1,0.4,0c0.1,0,0.2,0.1,0.3,0.3
	c0.1,0.1,0.1,0.3,0,0.4c-0.2,0.4-0.4,1.1-0.7,1.8s-0.6,1.6-1,2.4s-0.8,1.7-1.3,2.6c-0.4,0.8-0.9,1.6-1.5,2.4c-0.5,0.6-1,1.2-1.6,1.8
	c-0.5,0.4-1.1,0.7-1.7,0.7c-0.3,0-0.7-0.1-0.9-0.2c-0.3-0.2-0.5-0.4-0.7-0.6c-0.2-0.3-0.3-0.6-0.4-0.9
	C150.2,165.9,150.2,165.6,150.2,165.3z M147.1,165.9c0.4-0.1,0.8-0.3,1-0.7c0.4-0.5,0.8-1.1,1.1-1.7c0.4-0.7,0.7-1.5,1-2.3
	c0.3-0.8,0.6-1.7,0.9-2.4s0.5-1.5,0.7-2.1l0.5-1.4l0.2-0.5c0.1-0.2,0.1-0.3,0.2-0.5c-0.2-0.4-0.6-0.6-1-0.5c-0.8,0-1.5,0.5-1.9,1.1
	c-0.7,0.8-1.2,1.8-1.6,2.8c-0.5,1.1-0.8,2.2-1.1,3.4c-0.3,1-0.4,2-0.5,3.1c0,0.1,0,0.3,0,0.5c0,0.2,0,0.4,0,0.6
	c0,0.2,0.1,0.4,0.2,0.5C146.8,165.8,147,165.9,147.1,165.9z"/>
<path class="st2" d="M163.5,165.3c0.2-1.8,0.6-3.7,1-5.5c0.4-1.8,1-3.6,1.6-5.4c-0.7,0.8-1.4,1.7-2,2.6c-0.7,1-1.3,2-1.8,3
	c-0.5,1-1,2.1-1.4,3.1c-0.4,1-0.7,1.9-0.9,2.9c0,0.2-0.1,0.5-0.1,0.8s0,0.5,0,0.7c0,0.2-0.1,0.4-0.3,0.5c0,0-0.1,0-0.1,0
	c-0.3,0-0.6-0.1-0.8-0.2c-0.3-0.1-0.6-0.2-0.9-0.4c-0.3-0.1-0.5-0.3-0.7-0.6c-0.2-0.2-0.3-0.4-0.3-0.6c0-1.4,0.1-2.8,0.2-4.2
	c0.2-1.6,0.5-3.4,0.8-5.1s0.7-3.6,1.1-5.3s0.8-3.3,1.3-4.7c0.3-1.2,0.7-2.3,1.2-3.4c0.4-0.9,0.7-1.3,1-1.3c0.3,0,0.6,0.1,0.9,0.2
	c0.4,0.1,0.8,0.3,1.2,0.4c0.3,0.1,0.7,0.3,1,0.5c0.3,0.2,0.4,0.4,0.4,0.5c0,0.1,0,0.1-0.1,0.2l-0.3,0.3c-0.1,0.1-0.2,0.2-0.2,0.3
	c-0.5,0.9-0.9,1.9-1.2,2.8c-0.4,1.2-0.8,2.5-1.2,3.9c-0.4,1.4-0.8,2.9-1.1,4.5s-0.7,3-0.9,4.5c0.7-1.6,1.6-3.1,2.6-4.6
	c0.9-1.3,2-2.5,3.2-3.5c0.2-0.2,0.5-0.3,0.8-0.3c0.2,0,0.5,0.1,0.7,0.1c0.3,0.1,0.6,0.2,0.9,0.3c0.3,0.1,0.6,0.3,0.8,0.5
	c0.2,0.1,0.3,0.3,0.3,0.5c0,0.1,0,0.1,0,0.2c0,0.1,0,0.1-0.1,0.2l-0.2,0.5c-0.1,0.2-0.1,0.3-0.2,0.5c-0.3,0.9-0.6,1.8-0.9,2.7
	s-0.6,1.9-0.8,2.8s-0.5,1.8-0.6,2.7s-0.4,1.6-0.5,2.3s0.1,0.7,0.6,0.3c0.6-0.7,1.2-1.4,1.7-2.2c0.5-0.9,1-1.7,1.5-2.6
	c0.5-0.9,0.9-1.8,1.2-2.7s0.7-1.7,0.9-2.4c0-0.2,0.2-0.3,0.3-0.3c0.1-0.1,0.3-0.1,0.4,0c0.1,0.1,0.2,0.2,0.3,0.3
	c0.1,0.1,0.1,0.3,0,0.4l-0.7,1.8c-0.3,0.8-0.6,1.6-1,2.4s-0.8,1.7-1.3,2.6c-0.4,0.8-1,1.6-1.5,2.4c-0.5,0.7-1,1.2-1.7,1.8
	c-0.5,0.4-1.1,0.7-1.7,0.7c-0.3,0-0.7-0.1-0.9-0.2c-0.3-0.2-0.5-0.4-0.7-0.6c-0.2-0.3-0.4-0.6-0.5-0.9
	C163.5,165.9,163.5,165.6,163.5,165.3z"/>
<path class="st2" d="M180.7,168.1c-0.1-0.2-0.2-0.4-0.2-0.6c0-0.2,0-0.4,0.1-0.6c0-0.1,0.1-0.2,0.2-0.3c0.1-0.1,0.2,0,0.3,0.2
	c0.3,0.7,1,1.2,1.8,1.2c0.9,0,1.8-0.4,2.5-1c0.9-0.8,1.7-1.7,2.3-2.7c0.8-1.2,1.4-2.5,2-3.8c1.2-2.8,2-5.7,2.5-8.8
	c0.2-1.3,0.3-2.5,0.2-3.8c0-0.9-0.2-1.8-0.6-2.7c-0.3-0.6-0.9-1-1.6-1c-0.6,0-1.2,0.2-1.6,0.6c-0.5,0.4-1,1-1.4,1.6
	c-0.4,0.6-0.8,1.2-1.1,1.9c-0.3,0.7-0.6,1.2-0.8,1.7c-0.6,1.3-1.1,2.7-1.6,4.2s-1,3-1.5,4.6s-0.9,3.1-1.3,4.6s-0.7,2.9-1,4.2
	c0,0.1-0.1,0.3-0.2,0.4c0,0.1-0.2,0.1-0.4,0.1c-0.3,0-0.6-0.1-0.8-0.2c-0.3-0.1-0.6-0.2-0.9-0.4c-0.3-0.2-0.5-0.3-0.7-0.6
	c-0.2-0.2-0.3-0.4-0.3-0.6c0-1.4,0.1-2.8,0.3-4.1c0.2-1.6,0.5-3.3,0.8-5.1s0.7-3.6,1.1-5.3c0.4-1.8,0.8-3.4,1.3-4.8
	c0.3-1.2,0.8-2.3,1.2-3.4c0.4-0.9,0.7-1.3,1-1.3c0.3,0,0.6,0.1,0.9,0.2c0.4,0.1,0.8,0.3,1.2,0.4c0.3,0.1,0.7,0.3,1,0.5
	c0.3,0.2,0.4,0.4,0.4,0.5c0,0.1,0,0.1-0.1,0.2l-0.3,0.3c-0.1,0.1-0.2,0.2-0.2,0.3c-0.4,0.7-0.7,1.5-1,2.3c-0.4,0.9-0.7,2-1,3.1
	s-0.7,2.4-1,3.6s-0.6,2.6-0.9,3.9c0.5-1.4,0.9-2.9,1.4-4.2s1-2.6,1.5-3.9c0.3-0.6,0.6-1.4,1-2.2c0.4-0.9,0.9-1.7,1.4-2.4
	c0.5-0.7,1.2-1.4,1.9-1.9c0.7-0.5,1.5-0.8,2.4-0.8c1.2-0.1,2.4,0.4,3.2,1.2c0.8,0.9,1.4,2,1.6,3.1c0.3,1.5,0.4,2.9,0.3,4.4
	c-0.1,1.7-0.5,3.4-0.9,5.1c-0.5,1.7-1.1,3.5-1.9,5.1c-0.7,1.6-1.6,3.1-2.7,4.4c-0.9,1.2-2,2.3-3.3,3.1c-1.1,0.8-2.4,1.2-3.7,1.2
	c-1.2,0-2.3-0.6-2.8-1.6L180.7,168.1z"/>
<path class="st2" d="M195.3,165.3c0-0.3,0.1-0.5,0.1-0.8c0-0.3,0-0.5,0.1-0.8c0.3-2,0.7-3.9,1.2-5.8c0.5-1.8,1.1-3.6,1.8-5.4
	c0.2-0.4,0.4-0.5,0.6-0.5c0.2,0,0.4,0.1,0.7,0.1c0.5,0.2,1,0.4,1.4,0.7c0.2,0.1,0.3,0.2,0.5,0.4c0.2,0.1,0.3,0.3,0.2,0.5
	c0,0,0,0,0,0.1c-0.1,0.2-0.2,0.4-0.3,0.7c-0.3,0.9-0.7,1.8-1,2.8s-0.6,2-0.9,3s-0.5,1.9-0.7,2.9s-0.4,1.7-0.5,2.5
	c-0.1,0.3,0,0.5,0.1,0.5c0.2,0,0.3-0.1,0.4-0.2c0.7-0.7,1.2-1.4,1.7-2.2c0.5-0.8,1-1.7,1.5-2.6c0.4-0.9,0.8-1.8,1.2-2.7
	s0.7-1.7,0.9-2.4c0.1-0.1,0.2-0.3,0.3-0.3c0.1-0.1,0.3-0.1,0.4,0c0.1,0,0.2,0.1,0.3,0.3c0.1,0.1,0.1,0.3,0,0.4
	c-0.2,0.4-0.4,1.1-0.7,1.8s-0.6,1.6-1,2.4s-0.8,1.7-1.3,2.6c-0.5,0.8-1,1.6-1.5,2.4c-0.5,0.7-1,1.2-1.7,1.8
	c-0.5,0.4-1.1,0.7-1.7,0.7c-0.3,0-0.7-0.1-0.9-0.2c-0.3-0.2-0.5-0.4-0.7-0.6c-0.2-0.3-0.3-0.6-0.4-0.9
	C195.3,165.9,195.3,165.6,195.3,165.3z M201.8,144.8c0.4-0.7,0.7-1.1,1-1.1c0.4,0.1,0.7,0.2,1.1,0.4c0.5,0.2,0.9,0.4,1.3,0.7
	c0.6,0.4,0.6,0.9,0.2,1.6c-0.2,0.3-0.4,0.7-0.8,1.2c-0.3,0.5-0.7,1-1.1,1.5c-0.3,0.4-0.7,0.9-1.1,1.3c-0.2,0.3-0.6,0.5-0.9,0.5
	c-0.5,0.1-0.9-0.2-1-0.7c0,0,0-0.1,0-0.1c-0.1-0.6-0.1-1.3,0.1-1.9c0.2-0.7,0.4-1.4,0.6-2.1C201.5,145.5,201.6,145,201.8,144.8z"/>
<path class="st2" d="M209,163.6c-0.5,1.1-1.2,2.2-2,3.1c-0.6,0.8-1.5,1.3-2.5,1.3c-0.7,0-1.4-0.2-1.9-0.7c-0.5-0.5-0.8-1.1-0.8-1.8
	c-0.1-1.2-0.1-2.4,0.1-3.6c0.2-1.3,0.6-2.7,1.1-3.9c0.5-1.2,1.1-2.4,1.9-3.5c0.7-1,1.6-1.8,2.6-2.4c0.3-0.2,0.7-0.3,1-0.2
	c0.4,0,0.8,0.1,1.1,0.2c0.3,0.1,0.7,0.3,1,0.5c0.3,0.2,0.6,0.3,1,0.5c0-0.1,0.1-0.2,0.1-0.2c0-0.1,0.1-0.2,0.1-0.3
	c0.1-0.4,0.3-0.5,0.6-0.5c0.5,0,1,0.2,1.4,0.4c0.4,0.2,0.8,0.5,1.2,0.7c0.1,0.1,0.2,0.2,0.2,0.4c0,0.1-0.1,0.3-0.2,0.4
	c-0.2,0.3-0.3,0.7-0.4,1c-0.5,1.4-0.9,2.8-1.2,4.3s-0.7,2.8-1,4l-0.1,0.4c1.1-1,2.1-2.1,3-3.4c1-1.3,1.8-2.8,2.3-4.3
	c0-0.2,0.2-0.3,0.3-0.3c0.1-0.1,0.3-0.1,0.4,0c0.1,0.1,0.2,0.1,0.3,0.3c0.1,0.1,0.1,0.3,0,0.4c-0.7,1.9-1.7,3.7-3,5.2
	c-1.1,1.4-2.4,2.7-3.8,3.9c-0.3,1.3-0.6,2.6-1,3.9s-0.8,2.6-1.2,3.8c-0.4,1.2-1.1,2.3-1.9,3.2c-1,0.9-2.2,1.3-3.5,1.2
	c-0.5,0-1-0.1-1.4-0.3c-0.5-0.2-0.9-0.6-1.2-1c-0.3-0.4-0.5-0.8-0.6-1.3c-0.1-0.5-0.1-1,0-1.4c0.1-0.5,0.3-0.9,0.5-1.4
	c0.2-0.4,0.5-0.8,0.8-1.2c0.3-0.4,0.8-0.8,1.2-1.2c0.5-0.4,0.9-0.7,1.4-1s1-0.6,1.5-0.9s1-0.6,1.4-0.9c0.2-0.6,0.3-1.1,0.5-1.7
	C208.5,164.7,208.8,164.1,209,163.6z M204,175.7c0.4,0,0.8-0.2,1.1-0.5c0.4-0.4,0.8-1,0.9-1.6c0.2-0.7,0.5-1.5,0.7-2.3l0.8-2.6
	c-0.5,0.3-1,0.7-1.5,1c-0.6,0.4-1.1,0.8-1.6,1.2c-0.5,0.4-0.9,0.9-1.2,1.5c-0.3,0.5-0.5,1.1-0.4,1.8c0,0.4,0.1,0.7,0.3,1
	C203.3,175.5,203.6,175.7,204,175.7z M210.3,153.7c-0.8,0-1.5,0.5-1.9,1.1c-0.6,0.8-1.2,1.8-1.6,2.8c-0.5,1.1-0.8,2.2-1.1,3.4
	c-0.2,1-0.4,2-0.5,3.1c0,0.2,0,0.3,0,0.5c0,0.2,0,0.4,0,0.6c0,0.2,0.1,0.4,0.2,0.5c0.1,0.1,0.2,0.2,0.4,0.2c0.4-0.1,0.8-0.3,1-0.7
	c0.4-0.5,0.7-1.1,1-1.7c0.4-0.7,0.7-1.4,1-2.3s0.6-1.7,0.9-2.4s0.5-1.5,0.7-2.1s0.4-1.1,0.5-1.4s0.1-0.4,0.2-0.5s0.1-0.3,0.2-0.5
	C211,153.9,210.7,153.7,210.3,153.7L210.3,153.7z"/>
<path class="st2" d="M215.3,165.3c0.1-0.2,0.1-0.5,0.1-0.8c0-0.3,0.1-0.5,0.1-0.8c0.3-2,0.7-3.9,1.2-5.8c0.5-1.8,1.1-3.6,1.8-5.4
	c0.2-0.4,0.4-0.5,0.6-0.5c0.2,0,0.5,0,0.7,0.1c0.5,0.2,1,0.4,1.4,0.7c0.2,0.1,0.3,0.2,0.5,0.4c0.2,0.1,0.3,0.3,0.2,0.5
	c0,0,0,0,0,0.1c-0.1,0.2-0.2,0.4-0.3,0.7c-0.4,0.9-0.7,1.8-1,2.8s-0.6,2-0.9,3s-0.5,1.9-0.7,2.9s-0.4,1.7-0.5,2.5
	c0,0.3,0,0.5,0.1,0.5c0.2,0,0.3-0.1,0.4-0.2c0.7-0.7,1.2-1.4,1.7-2.2c0.5-0.8,1-1.7,1.5-2.6c0.4-0.9,0.9-1.8,1.2-2.7
	s0.7-1.7,0.9-2.4c0.1-0.1,0.2-0.3,0.3-0.3c0.1-0.1,0.3-0.1,0.4,0c0.1,0.1,0.2,0.2,0.3,0.3c0.1,0.1,0.1,0.3,0,0.4
	c-0.2,0.5-0.4,1.1-0.7,1.8c-0.3,0.8-0.6,1.6-1,2.4s-0.9,1.7-1.3,2.6c-0.4,0.8-1,1.6-1.5,2.4c-0.5,0.7-1,1.2-1.7,1.8
	c-0.5,0.4-1.1,0.7-1.7,0.7c-0.3,0-0.7-0.1-0.9-0.2c-0.3-0.2-0.5-0.4-0.7-0.6c-0.2-0.3-0.3-0.6-0.4-0.9
	C215.3,165.9,215.3,165.6,215.3,165.3z M221.8,144.8c0.4-0.7,0.7-1.1,1-1.1c0.4,0.1,0.7,0.2,1.1,0.4c0.5,0.2,0.9,0.4,1.3,0.7
	c0.6,0.4,0.6,0.9,0.2,1.6l-0.8,1.2c-0.3,0.5-0.7,1-1.1,1.5c-0.3,0.4-0.7,0.9-1.1,1.3c-0.2,0.3-0.5,0.5-0.9,0.5
	c-0.5,0.1-0.9-0.2-1-0.7c0,0,0-0.1,0-0.1c-0.1-0.6-0.1-1.3,0.1-1.9c0.2-0.7,0.4-1.4,0.6-2.1C221.4,145.5,221.6,145,221.8,144.8
	L221.8,144.8z"/>
<path class="st2" d="M230.6,146.6c-0.1,0.1-0.2,0.3-0.3,0.5c-0.1,0.2-0.1,0.3-0.2,0.5c-0.1,0.2-0.1,0.4-0.2,0.6s-0.1,0.4-0.2,0.6
	c0.6,0,1.2,0,1.8,0.1c0.4,0,0.9,0.2,1.2,0.4c0.1,0,0.1,0.1,0.2,0.2c0.1,0.1,0.1,0.3,0.2,0.5c0,0.2,0.1,0.3,0.1,0.5
	c0,0.1,0,0.3,0,0.4c0,0.2,0,0.3-0.2,0.4h-0.1c-0.6-0.2-1.2-0.3-1.8-0.3c-0.7,0-1.3-0.1-2-0.1c-0.4,1.2-0.7,2.4-1,3.7
	s-0.6,2.6-0.9,3.8s-0.5,2.5-0.8,3.6s-0.4,2.2-0.5,3.1c0,0.5,0,0.7,0.1,0.8c0.1,0.1,0.3,0,0.6-0.3c0.6-0.7,1.2-1.4,1.8-2.2
	c0.6-0.9,1.1-1.7,1.6-2.6s1-1.8,1.4-2.6s0.7-1.6,1-2.3c0.1-0.1,0.2-0.3,0.3-0.3c0.1-0.1,0.3-0.1,0.4,0c0.1,0,0.2,0.1,0.3,0.3
	c0.1,0.1,0.1,0.3,0,0.4c-0.2,0.5-0.4,1.1-0.8,1.8c-0.3,0.8-0.7,1.6-1.2,2.4s-1,1.7-1.5,2.6c-0.5,0.8-1.1,1.6-1.7,2.4
	c-0.5,0.6-1.1,1.2-1.8,1.8c-0.5,0.4-1.1,0.6-1.7,0.7c-0.5,0-0.9-0.1-1.3-0.4c-0.3-0.3-0.5-0.6-0.6-1c-0.1-0.4-0.2-0.8-0.2-1.3
	c0-0.4,0-0.9,0-1.3c0.1-0.9,0.2-1.9,0.4-3c0.2-1.1,0.4-2.2,0.6-3.3s0.5-2.3,0.7-3.4s0.5-2.3,0.8-3.4h-0.9c-0.2,0-0.4,0-0.7,0
	c-0.3,0-0.6,0-0.9-0.1c-0.3,0-0.6-0.1-0.8-0.3c-0.2-0.1-0.4-0.4-0.5-0.6c-0.1-0.3,0-0.5,0.4-0.5c0.7,0,1.3,0,2-0.1l1.9-0.2
	c0.1-0.5,0.3-1.1,0.4-1.6c0.1-0.5,0.3-1,0.5-1.5c0.4-1,0.8-1.5,1.2-1.5c0.3,0,0.6,0.1,0.8,0.2c0.4,0.1,0.7,0.3,1.1,0.4
	c0.3,0.2,0.6,0.3,0.9,0.5c0.3,0.2,0.4,0.4,0.4,0.5c0,0.1-0.1,0.1-0.1,0.2C230.7,146.5,230.7,146.5,230.6,146.6L230.6,146.6z"/>
<path class="st2" d="M236.7,165.3c0.1-0.2,0.1-0.5,0.1-0.8c0-0.3,0.1-0.5,0.1-0.8c0-0.1,0-0.2,0-0.3c-0.5,1.1-1.2,2.2-2,3.2
	c-0.6,0.8-1.5,1.3-2.5,1.3c-0.7,0-1.4-0.2-1.9-0.7c-0.5-0.5-0.7-1.1-0.8-1.8c-0.1-1.2-0.1-2.4,0.1-3.6c0.2-1.3,0.6-2.7,1.1-3.9
	c0.5-1.2,1.1-2.4,1.9-3.5c0.7-1,1.6-1.8,2.6-2.4c0.3-0.2,0.6-0.3,1-0.3c0.3,0,0.7,0.1,1,0.2c0.3,0.1,0.7,0.3,1,0.5l1.1,0.6
	c0.1-0.1,0.1-0.1,0.1-0.2c0-0.1,0.1-0.2,0.1-0.3c0.2-0.4,0.4-0.5,0.6-0.5c0.2,0,0.5,0,0.7,0.1c0.5,0.2,1,0.4,1.4,0.7
	c0.2,0.1,0.3,0.2,0.5,0.4c0.2,0.1,0.3,0.3,0.2,0.5c0,0,0,0,0,0.1c-0.1,0.2-0.2,0.4-0.3,0.7c-0.3,0.9-0.6,1.8-0.9,2.8s-0.6,2-0.8,3
	s-0.5,1.9-0.6,2.9l-0.5,2.5c0,0.3,0,0.5,0.1,0.5c0.2,0,0.3-0.1,0.4-0.2c0.7-0.7,1.2-1.4,1.7-2.2c0.5-0.8,1-1.7,1.4-2.6
	c0.4-0.9,0.8-1.8,1.1-2.7s0.6-1.7,0.9-2.4c0.1-0.1,0.2-0.3,0.3-0.3c0.1-0.1,0.3-0.1,0.4,0c0.3,0.1,0.4,0.4,0.3,0.7
	c-0.2,0.4-0.4,1.1-0.7,1.8s-0.6,1.6-1,2.4s-0.8,1.7-1.3,2.6c-0.4,0.8-0.9,1.6-1.5,2.4c-0.5,0.6-1,1.2-1.6,1.8
	c-0.5,0.4-1.1,0.7-1.7,0.7c-0.3,0-0.7-0.1-0.9-0.2c-0.3-0.2-0.5-0.4-0.7-0.6c-0.2-0.3-0.3-0.6-0.4-0.9
	C236.6,165.9,236.6,165.6,236.7,165.3z M233.6,165.9c0.4-0.1,0.8-0.3,1-0.7c0.4-0.5,0.8-1.1,1.1-1.7c0.4-0.7,0.7-1.5,1-2.3
	c0.3-0.8,0.6-1.7,0.9-2.4s0.5-1.5,0.7-2.1s0.4-1.1,0.5-1.4s0.1-0.4,0.2-0.5s0.1-0.3,0.2-0.5c-0.2-0.4-0.6-0.6-1-0.5
	c-0.8,0-1.5,0.5-2,1.1c-0.7,0.8-1.2,1.8-1.6,2.8c-0.5,1.1-0.8,2.2-1.1,3.4c-0.2,1-0.4,2-0.5,3.1c0,0.2,0,0.3,0,0.5
	c0,0.2,0,0.4,0,0.6c0,0.2,0.1,0.4,0.2,0.5C233.2,165.8,233.4,165.9,233.6,165.9z"/>
<path class="st2" d="M243.2,164.1c0.1-1.3,0.3-2.7,0.5-4.3s0.5-3.2,0.9-4.8s0.7-3.2,1.1-4.7s0.8-2.9,1.2-4.1c0.3-1,0.7-2,1.1-2.9
	c0.3-0.7,0.6-1.1,0.9-1.1c0.3,0,0.6,0.1,0.9,0.2c0.4,0.1,0.8,0.3,1.2,0.4c0.3,0.1,0.7,0.3,1,0.5c0.3,0.2,0.4,0.4,0.4,0.5
	c0,0.1,0,0.1-0.1,0.2l-0.3,0.3c-0.1,0.1-0.2,0.2-0.2,0.3c-0.7,1.3-1.2,2.6-1.6,3.9c-0.5,1.7-1.1,3.6-1.6,5.6c-0.5,2-0.9,4-1.3,5.9
	c-0.4,2-0.7,3.7-0.9,5.1c0,0.5,0,0.7,0.1,0.8s0.3,0,0.6-0.3c0.6-0.7,1.2-1.4,1.6-2.2c0.5-0.9,1-1.7,1.4-2.6s0.8-1.8,1.2-2.6
	s0.6-1.6,0.9-2.3c0.1-0.1,0.2-0.3,0.3-0.3c0.1-0.1,0.3-0.1,0.4,0c0.1,0.1,0.2,0.2,0.3,0.3c0.1,0.1,0.1,0.3,0,0.4
	c-0.2,0.5-0.4,1.1-0.7,1.8c-0.3,0.8-0.6,1.6-1,2.4s-0.9,1.7-1.3,2.6c-0.4,0.8-1,1.6-1.5,2.4c-0.5,0.6-1,1.2-1.6,1.8
	c-0.5,0.4-1.1,0.7-1.7,0.7c-0.5,0-0.9-0.1-1.3-0.4c-0.3-0.3-0.5-0.6-0.6-1c-0.1-0.4-0.2-0.8-0.2-1.3
	C243.2,164.9,243.2,164.5,243.2,164.1z"/>
<path class="st2" d="M256.1,156.3c0-0.2,0-0.4,0.1-0.5c0-0.1,0.1-0.1,0.3,0c0.7,0.3,1.5,0.5,2.3,0.7c0.8,0.2,1.6,0.3,2.4,0.3l0,0
	c1.9-2.5,3.8-5,5.7-7.3c1.9-2.4,3.8-4.6,5.7-6.8c0.1-0.2,0.4-0.3,0.6-0.2c0.3,0.1,0.5,0.2,0.8,0.4c0.2-0.4,0.5-0.6,0.6-0.6
	c0.3,0,0.6,0.1,0.9,0.2c0.4,0.1,0.8,0.3,1.2,0.4c0.3,0.1,0.7,0.3,1,0.5c0.3,0.2,0.4,0.4,0.4,0.5c0,0.1,0,0.1-0.1,0.2l-0.3,0.3
	c-0.1,0.1-0.2,0.2-0.2,0.3c-0.5,0.9-0.9,1.9-1.2,2.9c-0.4,1.2-0.9,2.6-1.2,4s-0.8,3-1.2,4.6s-0.7,3.1-1,4.6s-0.5,2.8-0.7,3.9
	c-0.1,0.9-0.2,1.8-0.2,2.7c0,0.2-0.1,0.4-0.3,0.5c0,0-0.1,0-0.1,0c-0.3,0-0.6-0.1-0.8-0.2c-0.3-0.1-0.6-0.2-0.9-0.4
	c-0.3-0.1-0.5-0.3-0.7-0.6c-0.2-0.2-0.3-0.4-0.3-0.6c0-1.1,0.1-2.3,0.2-3.4c0.2-1.3,0.4-2.8,0.6-4.3c-1.1,0.1-2.2,0.2-3.3,0.4
	c-1.1,0.2-2.1,0.4-3.2,0.5c-0.7,1.1-1.4,2.3-2.2,3.6c-0.8,1.3-1.5,2.5-2.1,3.6c-0.1,0.3-0.2,0.5-0.4,0.7c-0.1,0.3-0.2,0.5-0.2,0.8
	c0,0.1-0.1,0.2-0.1,0.2s-0.4,0.1-0.7,0c-0.4-0.1-0.7-0.3-1.1-0.4c-0.4-0.2-0.7-0.4-1.1-0.6c-0.3-0.2-0.5-0.3-0.7-0.6
	c-0.1-0.1-0.1-0.3-0.1-0.5c0-0.2,0.1-0.4,0.2-0.5c0.1-0.2,0.2-0.3,0.3-0.5c0.1-0.1,0.2-0.3,0.3-0.4c0.6-0.8,1.2-1.7,1.9-2.7
	s1.3-1.9,1.9-2.7c-0.7,0-1.3-0.2-1.9-0.4c-0.2-0.1-0.3-0.3-0.4-0.4c-0.1-0.2-0.2-0.5-0.4-0.8c-0.1-0.3-0.2-0.6-0.3-0.9
	C256.1,156.7,256.1,156.5,256.1,156.3z M269.3,156.3c0.3,0,0.7,0.1,1,0.2c0.3-1.7,0.7-3.5,1.1-5.1c0.4-1.7,0.8-3.2,1.2-4.6
	c-1.2,1.5-2.5,3.1-3.7,4.8s-2.4,3.3-3.5,5l2-0.2C267.9,156.3,268.6,156.2,269.3,156.3L269.3,156.3z"/>
<path class="st2" d="M274.6,166.1c0.1-1,0.2-2.2,0.4-3.4s0.5-2.4,0.8-3.6s0.6-2.4,1-3.5c0.3-1.1,0.7-2.1,1.2-3.1
	c0.1-0.4,0.3-0.5,0.6-0.5c0.2,0,0.4,0,0.7,0.1c0.3,0.1,0.5,0.2,0.8,0.3c0.2,0.1,0.5,0.2,0.7,0.4c0.2,0.1,0.3,0.2,0.5,0.4
	c0.2,0.1,0.3,0.4,0.1,0.5c0,0,0,0,0,0c-0.1,0.2-0.2,0.4-0.3,0.7c-0.4,1-0.7,2-1.1,3.1s-0.6,2.2-0.9,3.3c0.4-0.8,0.8-1.6,1.2-2.4
	s0.9-1.6,1.4-2.4c0.5-0.7,0.9-1.4,1.5-2.1c0.4-0.6,0.9-1.1,1.5-1.6c0.2-0.2,0.5-0.3,0.8-0.3c0.2,0,0.4,0.1,0.6,0.1
	c0.3,0.1,0.6,0.2,0.9,0.3c0.3,0.1,0.6,0.3,0.8,0.5c0.2,0.1,0.3,0.3,0.3,0.5c0,0.2,0,0.3-0.1,0.4c-0.1,0.2-0.2,0.3-0.2,0.5l-0.2,0.5
	c-0.3,0.9-0.6,1.8-0.9,2.7s-0.5,1.9-0.8,2.8s-0.5,1.8-0.7,2.7s-0.4,1.6-0.5,2.3c0,0.3,0,0.5,0.1,0.5s0.3,0,0.5-0.2
	c0.7-0.7,1.2-1.4,1.7-2.2c0.5-0.8,1-1.7,1.5-2.6c0.4-0.9,0.8-1.8,1.2-2.7s0.7-1.7,1-2.4c0.1-0.1,0.2-0.3,0.3-0.3
	c0.1-0.1,0.3-0.1,0.4,0c0.1,0.1,0.2,0.2,0.3,0.3c0.1,0.1,0.1,0.3,0,0.4c-0.2,0.5-0.4,1.1-0.7,1.8c-0.3,0.8-0.6,1.6-1,2.4
	s-0.8,1.7-1.3,2.6c-0.4,0.8-1,1.6-1.5,2.4c-0.5,0.7-1,1.2-1.7,1.8c-0.5,0.4-1.1,0.7-1.7,0.7c-0.6,0-1.3-0.2-1.7-0.7
	c-0.4-0.4-0.6-0.9-0.6-1.5c0.1-0.9,0.3-1.8,0.4-2.8c0.2-1,0.4-2,0.6-3s0.5-2,0.8-3s0.6-1.9,0.9-2.8c-0.5,0.6-1,1.2-1.4,1.8
	c-0.5,0.7-0.9,1.5-1.4,2.3s-0.9,1.7-1.3,2.6s-0.8,1.7-1.1,2.6s-0.6,1.6-0.8,2.3c-0.2,0.6-0.3,1.1-0.3,1.7c0,0.2,0,0.3-0.1,0.4
	c-0.1,0-0.2,0.1-0.3,0.1c-0.3,0-0.5-0.1-0.8-0.2c-0.3-0.1-0.6-0.3-0.8-0.5c-0.2-0.2-0.5-0.4-0.6-0.6
	C274.8,166.5,274.7,166.3,274.6,166.1z"/>
<path class="st2" d="M295.5,164.1c0-0.1,0-0.2,0-0.3c0-0.1,0-0.2,0-0.3c-0.3,0.6-0.6,1.2-0.9,1.7c-0.3,0.5-0.7,1-1.1,1.4
	c-0.4,0.4-0.8,0.7-1.2,1c-0.4,0.2-0.9,0.4-1.4,0.4c-0.9,0.1-1.7-0.3-2.2-1c-0.4-0.7-0.7-1.5-0.7-2.3c0-1.2,0-2.4,0.2-3.5
	c0.2-1.3,0.5-2.5,1-3.7c0.4-1.2,1-2.2,1.8-3.2c0.6-0.9,1.5-1.7,2.5-2.2c0.3-0.2,0.6-0.3,1-0.3c0.3,0,0.7,0.1,1,0.2
	c0.3,0.1,0.7,0.3,1,0.4c0.3,0.2,0.6,0.3,0.9,0.5c0.3-1.4,0.6-2.8,1-4.1s0.7-2.4,1-3.4c0.3-0.8,0.6-1.6,1-2.4
	c0.3-0.6,0.6-0.9,0.8-0.9c0.3,0,0.6,0.1,0.9,0.2c0.4,0.1,0.8,0.3,1.2,0.4c0.3,0.1,0.7,0.3,1,0.5c0.3,0.2,0.4,0.4,0.4,0.5
	s0,0.2-0.1,0.2c-0.1,0.1-0.2,0.2-0.3,0.3c-0.1,0.1-0.2,0.2-0.2,0.3c-0.6,1.3-1.2,2.6-1.6,3.9c-0.5,1.7-1.1,3.6-1.6,5.6
	s-0.9,4-1.3,5.9c-0.4,2-0.7,3.7-0.9,5.1c-0.1,0.9,0.1,1,0.6,0.4c0.6-0.7,1.2-1.4,1.7-2.2c0.5-0.9,1-1.7,1.4-2.6s0.8-1.8,1.2-2.6
	s0.7-1.6,0.9-2.3c0.1-0.1,0.2-0.3,0.3-0.3c0.1-0.1,0.3-0.1,0.4,0c0.1,0.1,0.2,0.2,0.3,0.3c0.1,0.1,0.1,0.3,0,0.4
	c-0.2,0.5-0.4,1.1-0.7,1.8c-0.3,0.8-0.6,1.6-1,2.4s-0.8,1.7-1.3,2.6c-0.4,0.8-1,1.6-1.5,2.4c-0.5,0.7-1,1.2-1.7,1.8
	c-0.5,0.4-1.1,0.7-1.7,0.7c-0.5,0-0.9-0.1-1.3-0.4c-0.3-0.3-0.5-0.6-0.6-1c-0.1-0.4-0.2-0.8-0.2-1.3
	C295.5,164.9,295.5,164.5,295.5,164.1z M296.2,153.7c-0.7,0-1.4,0.4-1.8,1c-0.6,0.8-1.1,1.7-1.4,2.6c-0.4,1.1-0.7,2.1-1,3.2
	c-0.2,1-0.4,2-0.5,3c-0.1,0.5,0,1.1,0.1,1.6c0.1,0.4,0.4,0.6,0.7,0.6c0.5,0,1-0.4,1.5-1.3c0.5-0.8,0.9-1.6,1.3-2.4
	c0.4-1,0.8-2,1.2-2.9l0.4-2.4c0.2-0.8,0.3-1.6,0.5-2.4C296.9,153.9,296.6,153.7,296.2,153.7z"/>
<path class="st2" d="M309,165.3c0.1-0.3,0.1-0.5,0.1-0.8c0-0.3,0-0.5,0.1-0.8c0-0.1,0-0.2,0-0.3c-0.5,1.1-1.2,2.2-2,3.2
	c-0.6,0.8-1.5,1.3-2.5,1.3c-0.7,0-1.4-0.2-1.9-0.7c-0.5-0.5-0.7-1.1-0.8-1.8c-0.1-1.2-0.1-2.4,0.1-3.6c0.2-1.3,0.6-2.7,1.1-3.9
	c0.5-1.2,1.1-2.4,1.9-3.5c0.7-1,1.6-1.8,2.6-2.4c0.3-0.2,0.6-0.3,1-0.3c0.3,0,0.7,0.1,1,0.2c0.3,0.1,0.7,0.3,1,0.5l1.1,0.6
	c0.1-0.1,0.1-0.2,0.1-0.2c0-0.1,0-0.2,0.1-0.3c0.2-0.4,0.4-0.5,0.6-0.5c0.2,0,0.4,0,0.7,0.1c0.3,0.1,0.5,0.2,0.7,0.3
	c0.2,0.1,0.5,0.2,0.7,0.4c0.2,0.1,0.4,0.2,0.5,0.4c0.2,0.1,0.3,0.4,0.1,0.5c0,0,0,0,0,0c-0.1,0.2-0.2,0.4-0.3,0.7
	c-0.3,0.9-0.6,1.8-0.9,2.8s-0.6,2-0.8,3s-0.5,1.9-0.6,2.9s-0.3,1.7-0.5,2.5c-0.1,0.3,0,0.5,0.1,0.5c0.2,0,0.3-0.1,0.4-0.2
	c0.7-0.7,1.2-1.4,1.7-2.2c0.5-0.8,1-1.7,1.4-2.6c0.4-0.9,0.8-1.8,1.1-2.7s0.6-1.7,0.9-2.4c0.1-0.1,0.2-0.3,0.3-0.3
	c0.1-0.1,0.3-0.1,0.4,0c0.1,0.1,0.2,0.2,0.3,0.3c0.1,0.1,0.1,0.3,0,0.4c-0.2,0.4-0.4,1.1-0.7,1.8s-0.6,1.6-1,2.4s-0.8,1.7-1.3,2.6
	c-0.4,0.8-0.9,1.6-1.5,2.4c-0.5,0.6-1,1.2-1.6,1.8c-0.5,0.4-1.1,0.7-1.7,0.7c-0.3,0-0.7-0.1-1-0.2c-0.3-0.2-0.5-0.4-0.7-0.6
	C309.1,166.6,308.9,166,309,165.3L309,165.3z M305.9,165.9c0.4-0.1,0.8-0.3,1-0.7c0.4-0.5,0.8-1.1,1.1-1.7c0.4-0.7,0.7-1.5,1-2.3
	c0.3-0.8,0.6-1.7,0.9-2.4s0.5-1.5,0.7-2.1s0.4-1.1,0.5-1.4s0.1-0.4,0.2-0.5c0.1-0.2,0.1-0.3,0.2-0.5c-0.2-0.3-0.6-0.6-1-0.5
	c-0.8,0-1.5,0.5-1.9,1.1c-0.7,0.8-1.2,1.8-1.6,2.8c-0.5,1.1-0.8,2.2-1.1,3.4c-0.3,1-0.4,2-0.5,3.1c0,0.1,0,0.3,0,0.5
	c0,0.2,0,0.4,0,0.6c0,0.2,0.1,0.4,0.2,0.5C305.6,165.8,305.7,165.9,305.9,165.9L305.9,165.9z"/>
<path class="st0" d="M493.3,41.1c-1.3-1.4-1.3-3.5,0-4.9c1.3-1.3,3.5-1.3,4.8,0c1.3,1.3,1.3,3.5,0,4.8c-0.6,0.6-1.5,1-2.4,1
	C494.8,42,494,41.7,493.3,41.1z"/>
<path class="st0" d="M538.2,22c1.6,1.6,2.4,4,2.4,7.2v12.5h-5.1V29.8c0.1-1.5-0.3-3.1-1.3-4.3c-0.9-1-2.3-1.5-3.6-1.5
	c-1.6-0.1-3.1,0.6-4.1,1.7c-1.1,1.4-1.7,3.1-1.5,4.8v11.1h-5.1V29.8c0.1-1.5-0.3-3.1-1.3-4.3c-0.9-1-2.3-1.5-3.6-1.5
	c-1.6-0.1-3.1,0.5-4.2,1.7c-1.1,1.4-1.7,3.1-1.5,4.9v11.1h-5.1V19.9h4.9v2.8c0.8-1,1.9-1.8,3.1-2.2c1.3-0.5,2.7-0.8,4.1-0.8
	c1.5,0,3,0.3,4.4,0.9c1.2,0.6,2.3,1.5,3,2.7c0.9-1.2,2.1-2.1,3.5-2.7c1.5-0.7,3.1-1,4.7-1C534.1,19.5,536.4,20.3,538.2,22z"/>
<path class="st0" d="M567.2,19.9L557,43.5c-0.7,2-1.9,3.7-3.5,5c-1.5,1-3.2,1.5-5,1.4c-1.1,0-2.2-0.2-3.2-0.5
	c-1-0.3-1.9-0.8-2.6-1.5l2-3.8c0.5,0.5,1.1,0.8,1.7,1.1c0.6,0.3,1.3,0.4,2,0.4c0.8,0,1.6-0.2,2.2-0.7c0.7-0.6,1.3-1.4,1.6-2.3
	l0.4-0.9l-9.5-21.9h5.3l7,16.2l6.9-16.2L567.2,19.9z"/>
<path class="st0" d="M568.3,41.1c-1.4-1.3-1.5-3.4-0.2-4.8c1.3-1.4,3.4-1.5,4.8-0.2c0.7,0.7,1.1,1.6,1.1,2.6c0,1.9-1.5,3.4-3.3,3.4
	C569.8,42,569,41.7,568.3,41.1z"/>
<path class="st0" d="M579.3,15.4c-0.6-0.6-1-1.4-0.9-2.2c0-0.8,0.3-1.6,0.9-2.2c0.6-0.6,1.5-0.9,2.3-0.9c0.9,0,1.7,0.3,2.4,0.9
	c0.6,0.5,1,1.3,0.9,2.1c0,0.9-0.3,1.7-0.9,2.3c-0.6,0.6-1.5,1-2.3,0.9C580.8,16.3,579.9,16,579.3,15.4z M579,19.9h5.1v21.9H579V19.9
	z"/>
<path class="st0" d="M612.3,11.3v30.4h-4.9v-2.8c-0.8,1-1.9,1.8-3.1,2.3c-1.3,0.5-2.7,0.8-4.1,0.8c-2,0-3.9-0.4-5.7-1.4
	c-1.7-0.9-3.1-2.3-4-4c-1-1.8-1.5-3.8-1.4-5.9c0-2,0.5-4.1,1.4-5.8c0.9-1.7,2.3-3,4-3.9c1.7-0.9,3.7-1.4,5.7-1.4
	c1.4,0,2.7,0.2,4,0.7c1.2,0.5,2.2,1.2,3.1,2.2V11.3H612.3z M604.1,36.8c1-0.6,1.8-1.4,2.3-2.4c1.1-2.3,1.1-4.9,0-7.2
	c-0.5-1-1.3-1.8-2.3-2.4c-2.1-1.1-4.6-1.1-6.6,0c-1,0.6-1.8,1.4-2.3,2.4c-1.1,2.3-1.1,4.9,0,7.2c0.5,1,1.3,1.8,2.3,2.4
	C599.5,37.9,602,37.9,604.1,36.8z"/>
</svg>
