<svg id="Layer_1" data-name="Layer 1" xmlns="http://www.w3.org/2000/svg" viewBox="0 0 624.7 182"><defs><style>.cls-1{fill:#fff;}</style></defs><path class="cls-1" d="M75.6,94.54a19.67,19.67,0,0,1,3.3,11.3c0,6.7-2.6,12-7.8,15.8s-12.3,5.7-21.4,5.7H14.2a2.42,2.42,0,0,1-2.4-2.3h0V52.74a2.35,2.35,0,0,1,2.4-2.3H49.9c8.3,0,14.8,1.8,19.5,5.5a17.53,17.53,0,0,1,7.1,14.9,17.59,17.59,0,0,1-2.6,9.8,17.05,17.05,0,0,1-4,4.5,2.48,2.48,0,0,0-.5,3.3,2.65,2.65,0,0,0,.6.5A18.69,18.69,0,0,1,75.6,94.54ZM29.5,67.64v10.5a2.35,2.35,0,0,0,2.4,2.3H50.2a10,10,0,0,0,6.6-2,7,7,0,0,0,2.3-5.6,7.42,7.42,0,0,0-2.4-5.7,10.23,10.23,0,0,0-6.5-2H31.9A2.59,2.59,0,0,0,29.5,67.64Zm29,42.2a9,9,0,0,0,.1-12.7l-.1-.1a11.39,11.39,0,0,0-7.5-2.3H31.9A2.42,2.42,0,0,0,29.5,97h0v12.7a2.35,2.35,0,0,0,2.4,2.3H51.1c3.2.1,5.7-.7,7.4-2.2Z"/><path class="cls-1" d="M131,75.14a23.63,23.63,0,0,1,9.9,9.4,28.47,28.47,0,0,1,3.5,14.2,32.53,32.53,0,0,1-.3,4.4,2.29,2.29,0,0,1-2.3,2.1H107.4a2.33,2.33,0,0,0-2.3,2.3,2.66,2.66,0,0,0,.3,1.2,10.53,10.53,0,0,0,3.1,3.2,16.94,16.94,0,0,0,9.6,2.6,26.56,26.56,0,0,0,7.9-1.2,18.87,18.87,0,0,0,5-2.3,2.29,2.29,0,0,1,2.9.4l5.9,6.4a2.35,2.35,0,0,1-.1,3.3l-.1.1a31.54,31.54,0,0,1-9,4.9,38.71,38.71,0,0,1-13.5,2.3,36.73,36.73,0,0,1-16.3-3.4,25.7,25.7,0,0,1-10.6-9.8,28.33,28.33,0,0,1-3.7-15,29.32,29.32,0,0,1,3.7-14.8,26.07,26.07,0,0,1,10.3-10,32.51,32.51,0,0,1,15.3-3.6A33.92,33.92,0,0,1,131,75.14Zm-23.2,13a9.36,9.36,0,0,0-3,4.3,2.3,2.3,0,0,0,1.6,2.9,1.48,1.48,0,0,0,.7.1h18.2a2.41,2.41,0,0,0,2.4-2.3,1.7,1.7,0,0,0-.1-.7,8.49,8.49,0,0,0-2.9-4.3,12.21,12.21,0,0,0-8.4-2.6A12.16,12.16,0,0,0,107.8,88.14Z"/><path class="cls-1" d="M192.3,73.24a15.69,15.69,0,0,1,4.9,2.7,2.33,2.33,0,0,1,.6,3l-5.1,8.9a2.29,2.29,0,0,1-3.1.9,16,16,0,0,0-2.3-1,15.23,15.23,0,0,0-4.2-.6,11,11,0,0,0-8.7,3.5c-2.1,2.3-3.2,5.8-3.2,10.3v24a2.41,2.41,0,0,1-2.3,2.4H156.4A2.42,2.42,0,0,1,154,125h0V75.34a2.35,2.35,0,0,1,2.4-2.3h10.8a2.35,2.35,0,0,1,2.3,1.9V75a2.35,2.35,0,0,0,2.7,1.9,2.73,2.73,0,0,0,1.2-.6,16.25,16.25,0,0,1,11.5-4.4A19.28,19.28,0,0,1,192.3,73.24Z"/><path class="cls-1" d="M259,75.34v49.6a2.43,2.43,0,0,1-2.4,2.4H246a2.35,2.35,0,0,1-2.3-1.9h0a2.3,2.3,0,0,0-2.7-1.9,3,3,0,0,0-1,.4,19.18,19.18,0,0,1-4.6,2.7,23.32,23.32,0,0,1-9.7,1.9q-10,0-15.9-6.6c-4-4.4-5.9-10.5-5.9-18.2V75.34a2.35,2.35,0,0,1,2.4-2.3h12.5a2.33,2.33,0,0,1,2.3,2.3v27.3c0,3.5.9,6.3,2.6,8.2a9.1,9.1,0,0,0,7.1,3,10.12,10.12,0,0,0,8-3.5,13.17,13.17,0,0,0,3-8.9V75.34a2.26,2.26,0,0,1,2.3-2.3h12.5A2.35,2.35,0,0,1,259,75.34Z"/><path class="cls-1" d="M326,55.14a32.67,32.67,0,0,1,13.8,13.5,40.79,40.79,0,0,1,4.9,20.2,42,42,0,0,1-4.9,20.3,33.61,33.61,0,0,1-13.8,13.4,42.89,42.89,0,0,1-20.8,4.7H276a2.42,2.42,0,0,1-2.4-2.3h0V52.74a2.35,2.35,0,0,1,2.4-2.3h29.2A43.15,43.15,0,0,1,326,55.14Zm-5.2,50.3c4-4.1,5.9-9.6,5.9-16.6a24.86,24.86,0,0,0-2.7-12,18.68,18.68,0,0,0-7.6-7.9,22.3,22.3,0,0,0-11.3-2.8H294a2.42,2.42,0,0,0-2.4,2.3h0v40.8a2.43,2.43,0,0,0,2.4,2.4h11.2c6.4-.1,11.6-2.1,15.6-6.2Z"/><path class="cls-1" d="M355.7,65a9.48,9.48,0,0,1,0-13.4l.1-.1a11.32,11.32,0,0,1,14.5,0,9.57,9.57,0,0,1,.2,13.4l-.1.1A11.6,11.6,0,0,1,355.7,65Zm1,8h12.5a2.33,2.33,0,0,1,2.3,2.3v49.6a2.49,2.49,0,0,1-2.3,2.4H356.6a2.35,2.35,0,0,1-2.3-2.4V75.34a2.42,2.42,0,0,1,2.4-2.3Z"/><path class="cls-1" d="M438.2,125.34a17.76,17.76,0,0,1,3,10.3,19.83,19.83,0,0,1-3.7,12,23.7,23.7,0,0,1-10.5,8,40.55,40.55,0,0,1-15.8,2.8,38.69,38.69,0,0,1-15.4-2.9,23.81,23.81,0,0,1-10.2-8.1,21.72,21.72,0,0,1-3.6-12.1V135a2.33,2.33,0,0,1,2.3-2.3h12.1a2.38,2.38,0,0,1,2.3,2.2,9.63,9.63,0,0,0,3,6.2c2.2,2,5.3,3,9.4,3a14.68,14.68,0,0,0,8.9-2.5,8,8,0,0,0,.3-12.9c-2.1-1.5-5.1-2.2-9-2.2a34.91,34.91,0,0,1-15.8-3.4,24.72,24.72,0,0,1-10.4-9.6,28.12,28.12,0,0,1-3.7-14.4A25.78,25.78,0,0,1,385.2,85a26.52,26.52,0,0,1,10.5-9.7,31.82,31.82,0,0,1,15.4-3.4,30.18,30.18,0,0,1,10.7,1.9,2.29,2.29,0,0,0,2.7-.7l3.9-4.8a2.25,2.25,0,0,1,3.2-.4l8.8,6.3a2.38,2.38,0,0,1,.5,3.3c0,.1-.1.1-.1.2l-4.3,5a2.26,2.26,0,0,0-.1,2.9,21.75,21.75,0,0,1,4.3,13.5,22.7,22.7,0,0,1-2.9,11.1,25.14,25.14,0,0,1-5.3,6.4,2.36,2.36,0,0,0-.3,3.3c.1.2.3.3.5.5A14.29,14.29,0,0,1,438.2,125.34Zm-17.8-17.2a13.14,13.14,0,0,0-18.5-18.6,12.34,12.34,0,0,0-3.5,9.3,12.89,12.89,0,0,0,3.5,9.3,13.68,13.68,0,0,0,18.5,0Z"/><path class="cls-1" d="M453.3,65a9.48,9.48,0,0,1-.1-13.4l.1-.1a11.32,11.32,0,0,1,14.5,0,9.48,9.48,0,0,1,.1,13.4l-.1.1a11.32,11.32,0,0,1-14.5,0Zm1,8h12.5a2.33,2.33,0,0,1,2.3,2.3v49.6a2.49,2.49,0,0,1-2.3,2.4H454.2a2.35,2.35,0,0,1-2.3-2.4V75.34a2.49,2.49,0,0,1,2.4-2.3Z"/><path class="cls-1" d="M520.4,123.24a2.27,2.27,0,0,1-1.4,2.9,32.51,32.51,0,0,1-12.4,2.3c-5.9,0-10.6-1.7-14.1-5s-5.2-8.7-5.2-16.1V89.14a2.26,2.26,0,0,0-2.3-2.3h-4.5a2.33,2.33,0,0,1-2.3-2.3v-9a2.33,2.33,0,0,1,2.3-2.3H485a2.26,2.26,0,0,0,2.3-2.3h0v-9.1a2.29,2.29,0,0,1,2.1-2.3l12.5-1.4a2.43,2.43,0,0,1,2.6,2.1v10.6a2.33,2.33,0,0,0,2.3,2.3h8.8a2.33,2.33,0,0,1,2.3,2.3v9a2.26,2.26,0,0,1-2.3,2.3h-8.9a2.26,2.26,0,0,0-2.3,2.3v18.2a6.31,6.31,0,0,0,1.7,4.9,6.1,6.1,0,0,0,4.5,1.6,11.41,11.41,0,0,0,4.1-.7,2.32,2.32,0,0,1,2.9,1.5h0Z"/><path class="cls-1" d="M585.3,75.34v49.6a2.41,2.41,0,0,1-2.3,2.4H572.4a2.36,2.36,0,0,1-2.3-2V125a2.3,2.3,0,0,0-2.7-1.9,2.22,2.22,0,0,0-1.1.5,24.34,24.34,0,0,1-14.9,4.8,25.8,25.8,0,0,1-13.5-3.6,25.32,25.32,0,0,1-9.2-10,34.17,34.17,0,0,1,0-29.3,24.62,24.62,0,0,1,9.2-10,27.39,27.39,0,0,1,23.6-1.7,20,20,0,0,1,4.9,2.8,2.37,2.37,0,0,0,3.3-.4,4.67,4.67,0,0,0,.5-1V75a2.35,2.35,0,0,1,2.3-1.9h10.6a2.15,2.15,0,0,1,2.2,2.2Zm-20.7,34.8a15.55,15.55,0,0,0,0-19.9,13.28,13.28,0,0,0-18.6,0,15.41,15.41,0,0,0,0,19.8,11.75,11.75,0,0,0,9.3,3.8A12,12,0,0,0,564.6,110.14Z"/><path class="cls-1" d="M600.6,50.44h12.5a2.33,2.33,0,0,1,2.3,2.3v72.2a2.49,2.49,0,0,1-2.3,2.4H600.6a2.35,2.35,0,0,1-2.3-2.4V52.74A2.2,2.2,0,0,1,600.6,50.44Z"/><path class="cls-1" d="M23.4,153.14a1.88,1.88,0,0,1-.8-.2,4.05,4.05,0,0,1-.9-.5,4.62,4.62,0,0,1-.7-.7,1.61,1.61,0,0,1-.3-.9,3.61,3.61,0,0,1,.6-2,12.38,12.38,0,0,1,1.4-1.8,22,22,0,0,0,1.4-1.8,2.79,2.79,0,0,0,.6-1.8,3.08,3.08,0,0,0-.3-1.3,1.43,1.43,0,0,0-1.2-.6,4.81,4.81,0,0,0-2.4.7,10.24,10.24,0,0,0-4.1,4.4,6.37,6.37,0,0,0-.7,2.7,3.32,3.32,0,0,0,.7,2.1,5.5,5.5,0,0,0,1.7,1.3,9.49,9.49,0,0,0,2.1.9,11.92,11.92,0,0,1,2,.8,5.88,5.88,0,0,1,2.4,2,3.74,3.74,0,0,1,.5,3.1,6.9,6.9,0,0,1-1.4,3,10,10,0,0,1-2.4,2.2,10.11,10.11,0,0,1-3,1.3,11.7,11.7,0,0,1-3.2.4,6.9,6.9,0,0,1-2.5-.4,7.19,7.19,0,0,1-2.1-1.2,4.43,4.43,0,0,1-1.3-4.6,5.82,5.82,0,0,1,1.2-2.5,2.18,2.18,0,0,1,.4-.5l.6-.6a4.23,4.23,0,0,1,.7-.5,1.45,1.45,0,0,1,.7-.2,2.92,2.92,0,0,1,.9.2,2.36,2.36,0,0,1,.9.6,4.62,4.62,0,0,1,.7.7,2,2,0,0,1,.4.8v.4a.22.22,0,0,1-.2.2,2.38,2.38,0,0,0-1.2.3,8.34,8.34,0,0,0-1.2.8,10.63,10.63,0,0,0-.9,1.1,2.66,2.66,0,0,0-.3,1.2,1.61,1.61,0,0,0,.3.9,4.35,4.35,0,0,0,.7.6l.9.3a2.77,2.77,0,0,0,.9.1,6.93,6.93,0,0,0,2-.3,14.27,14.27,0,0,0,2.2-.8,7.46,7.46,0,0,0,1.7-1.4,2.64,2.64,0,0,0,.7-1.9,3,3,0,0,0-1.6-2.5,14.94,14.94,0,0,0-2.5-1.3c-.8-.4-1.7-.8-2.5-1.3a8.6,8.6,0,0,1-2-1.8,5.36,5.36,0,0,1-1.1-2.7,7.55,7.55,0,0,1,.5-3.9,11.52,11.52,0,0,1,2.2-3.5,14.6,14.6,0,0,1,3.4-2.6,8.57,8.57,0,0,1,4.1-1,5.92,5.92,0,0,1,2.9.7,4.14,4.14,0,0,1,1.8,1.9,2.18,2.18,0,0,1,.7.9,1.49,1.49,0,0,1,.2.9,4,4,0,0,1-.6,2.2,17.61,17.61,0,0,1-1.4,2.3c-.5.7-.9,1.6-1.4,2.3a4.56,4.56,0,0,0-.6,2.2C23.6,153,23.5,153.14,23.4,153.14Z"/><path class="cls-1" d="M32,149.24a2.62,2.62,0,0,1,1.5-.2,3.51,3.51,0,0,1,1.4.6,5.17,5.17,0,0,1,3.2,1.1,5.24,5.24,0,0,1,1,1.1,3.26,3.26,0,0,1,.4,1.3,13.33,13.33,0,0,1-.3,2.8,13.09,13.09,0,0,1-.9,2.8,19.47,19.47,0,0,0,2.4-2.6,13.45,13.45,0,0,0,1.7-3.1c.1-.1.2-.3.3-.3a.3.3,0,0,1,.4,0l.3.3a.3.3,0,0,1,0,.4,15.36,15.36,0,0,1-6.3,7.5,10.84,10.84,0,0,1-2.6,3,5,5,0,0,1-3.3,1.2,4.14,4.14,0,0,1-1.9-.5,3.33,3.33,0,0,1-1.4-1.2,5.07,5.07,0,0,1-.9-1.6,4.67,4.67,0,0,1-.3-1.7,10.55,10.55,0,0,1,.4-3.1,12.13,12.13,0,0,1,1.1-3.2,11.65,11.65,0,0,1,1.7-2.8A5.31,5.31,0,0,1,32,149.24Zm-1.6,13.1c.1,0,.3-.1.4-.1A5,5,0,0,0,32,162a10.38,10.38,0,0,1,1.2-.3,16.18,16.18,0,0,0,1-1.8,24.44,24.44,0,0,0,1.4-4.6,14.92,14.92,0,0,0,.2-2.1,8.75,8.75,0,0,0-.2-1.6,1.21,1.21,0,0,0-.7-.7,1.34,1.34,0,0,0-.9.1,3.92,3.92,0,0,0-1,.8,9.74,9.74,0,0,0-1.5,2.4,14.19,14.19,0,0,0-1,2.9,13.58,13.58,0,0,0-.3,2.9,3.6,3.6,0,0,0,.2,2.3Z"/><path class="cls-1" d="M40,161.24c.1-1.3.3-2.7.5-4.3a40.48,40.48,0,0,1,.9-4.8c.4-1.6.7-3.2,1.1-4.7s.8-2.9,1.2-4.1a24.88,24.88,0,0,1,1.1-2.9c.4-.7.6-1.1.9-1.1a2.92,2.92,0,0,1,.9.2c.4.1.8.3,1.2.4a4.67,4.67,0,0,1,1,.5c.3.2.4.4.4.5s0,.1-.1.2l-.3.3c-.1.1-.2.2-.2.3a21.38,21.38,0,0,0-1.6,3.9c-.5,1.7-1.1,3.6-1.6,5.6s-1,4-1.4,5.9-.7,3.7-.9,5.1c-.1.5,0,.7.1.8s.3,0,.6-.3a11.22,11.22,0,0,0,1.6-2.2c.5-.9,1-1.7,1.4-2.6s.8-1.8,1.2-2.6.6-1.6.9-2.3c.1-.1.2-.3.3-.3a.3.3,0,0,1,.4,0c.1.1.3.2.3.3a.3.3,0,0,1,0,.4c-.2.4-.4,1.1-.7,1.8s-.6,1.6-1,2.4-.8,1.7-1.3,2.6l-1.5,2.4c-.5.6-1,1.2-1.6,1.8a2.84,2.84,0,0,1-1.7.7,2,2,0,0,1-1.3-.4,2.07,2.07,0,0,1-.6-1,5.07,5.07,0,0,1-.2-1.3A2.44,2.44,0,0,1,40,161.24Z"/><path class="cls-1" d="M53.5,162.44a2.2,2.2,0,0,0,.1-.8,2.49,2.49,0,0,1,.1-.8v-.2a15.5,15.5,0,0,1-2,3.2,3.13,3.13,0,0,1-2.5,1.3,2,2,0,0,1-1.1-.3,2.18,2.18,0,0,1-.9-.7,2.36,2.36,0,0,1-.6-.9,2.92,2.92,0,0,1-.2-.9,2,2,0,0,0,.1-.8c0-.3.1-.5.1-.8a54.15,54.15,0,0,1,1.2-5.8q.75-2.7,1.8-5.4c.2-.4.4-.5.6-.5s.4.1.7.1a6.11,6.11,0,0,1,1.4.7,1.76,1.76,0,0,1,.5.4.37.37,0,0,1,.2.5v.1a4.88,4.88,0,0,0-.3.7c-.3.8-.6,1.6-.9,2.5s-.5,1.7-.8,2.6-.5,1.8-.7,2.6a20.48,20.48,0,0,0-.5,2.4,2,2,0,0,0,0,1.1.66.66,0,0,0,.5.4,1.45,1.45,0,0,0,1-.7,9.91,9.91,0,0,0,1.1-1.7,25.05,25.05,0,0,0,1.1-2.3c.4-.9.7-1.7,1-2.4s.5-1.5.8-2.1a8.18,8.18,0,0,0,.5-1.4c.2-.5.3-.9.5-1.4s.3-.9.5-1.3.4-.5.6-.5.4.1.7.1a6.11,6.11,0,0,1,1.4.7,1.76,1.76,0,0,1,.5.4.37.37,0,0,1,.2.5v.1a4.88,4.88,0,0,0-.3.7c-.3.9-.7,1.8-1,2.8l-.9,3c-.3,1-.5,1.9-.7,2.9s-.4,1.7-.5,2.5c0,.3,0,.5.1.5a.76.76,0,0,0,.5-.2,18.39,18.39,0,0,0,1.7-2.2c.5-.8,1-1.7,1.5-2.6a16,16,0,0,0,1.2-2.7c.3-.9.7-1.7.9-2.4.1-.1.2-.3.3-.3a.3.3,0,0,1,.4,0q.15,0,.3.3a.3.3,0,0,1,0,.4l-.7,1.8a24.43,24.43,0,0,1-1,2.4c-.4.8-.8,1.7-1.3,2.6L59.2,163a9.58,9.58,0,0,1-1.7,1.8,2.84,2.84,0,0,1-1.7.7,2,2,0,0,1-1.7-.9A5.61,5.61,0,0,1,53.5,162.44Z"/><path class="cls-1" d="M62.3,165.34a2.93,2.93,0,0,1-1.6-.4,2.84,2.84,0,0,1-1-.9,2.66,2.66,0,0,1-.3-1.2,2.84,2.84,0,0,1,.4-1.3,2.54,2.54,0,0,1,1.2-1.1,4.19,4.19,0,0,1,1.6-.4l1.3-.1a5,5,0,0,0,1.2-.2,4.92,4.92,0,0,0-.6-1.7l-1.1-1.6a9.5,9.5,0,0,1-1-1.7,3.61,3.61,0,0,1-.4-2.1,3.29,3.29,0,0,1,.4-1.7,4.12,4.12,0,0,1,1-1.3,4.62,4.62,0,0,1,3-1.1,2,2,0,0,1,1.1.3,3.13,3.13,0,0,1,1.1.9,4.44,4.44,0,0,1,.8,1.1,2.28,2.28,0,0,1,.3,1.1c0,.2-.1.5-.1.7a3,3,0,0,1-.4.8,2.65,2.65,0,0,1-.5.6.76.76,0,0,1-.5.2,3.19,3.19,0,0,1-1.4-.3c-.5-.2-.7-.5-.7-.7s0-.1.1-.2a1.15,1.15,0,0,0,.9-.6,5.64,5.64,0,0,0,.4-1.2.73.73,0,0,0-.2-.6.55.55,0,0,0-.5-.3.71.71,0,0,0-.6.3,4.23,4.23,0,0,0-.5.7c-.1.3-.2.5-.3.8a1.7,1.7,0,0,0-.1.7,2.82,2.82,0,0,0,.4,1.5,5.67,5.67,0,0,0,.8,1.3l1,1.3a9.13,9.13,0,0,1,.8,1.3,8.68,8.68,0,0,0,2.7-2.3,13.69,13.69,0,0,0,1.6-3.2.32.32,0,0,1,.3-.3.57.57,0,0,1,.7.2.3.3,0,0,1,0,.4,10.67,10.67,0,0,1-2,3.8,9.13,9.13,0,0,1-3,2.5,4.09,4.09,0,0,1-.4,2.4,6.55,6.55,0,0,1-1.5,1.8,5.7,5.7,0,0,1-2.2,1.1A2.93,2.93,0,0,1,62.3,165.34Zm2.8-4.3a3.81,3.81,0,0,1-1.5.1,4.4,4.4,0,0,0-1.6.2,1.46,1.46,0,0,0-.9.6,1,1,0,0,0-.1.9,1.06,1.06,0,0,0,.6.7,1.28,1.28,0,0,0,1.2,0,3.27,3.27,0,0,0,1.5-1.1A3.69,3.69,0,0,0,65.1,161Z"/><path class="cls-1" d="M70.2,162.44a2,2,0,0,0,.1-.8c0-.3.1-.5.1-.8a54.15,54.15,0,0,1,1.2-5.8q.75-2.7,1.8-5.4c.2-.4.4-.5.6-.5a2,2,0,0,1,.7.1c.3.1.5.2.8.3a5.74,5.74,0,0,1,.7.4,1.76,1.76,0,0,1,.5.4c.2.1.3.4.1.5h0a4.88,4.88,0,0,0-.3.7,23.07,23.07,0,0,0-1,2.8l-.9,3c-.3,1-.5,1.9-.7,2.9s-.4,1.7-.5,2.5c0,.3,0,.5.1.5a.52.52,0,0,0,.4-.2,11.78,11.78,0,0,0,1.7-2.2c.5-.8,1-1.7,1.5-2.6l1.2-2.7a18.63,18.63,0,0,0,.9-2.4c.1-.1.2-.3.3-.3a.3.3,0,0,1,.4,0l.3.3a.3.3,0,0,1,0,.4c-.2.5-.4,1.1-.7,1.8a24.43,24.43,0,0,1-1,2.4c-.4.8-.9,1.7-1.3,2.6s-1,1.6-1.5,2.4a9.58,9.58,0,0,1-1.7,1.8,2.84,2.84,0,0,1-1.7.7,2.39,2.39,0,0,1-.9-.2,4.35,4.35,0,0,1-.7-.6,3.55,3.55,0,0,1-.4-.9A4.91,4.91,0,0,1,70.2,162.44Zm6.5-20.5c.4-.7.7-1.1,1-1.1a4.87,4.87,0,0,1,1.1.4,5.39,5.39,0,0,1,1.3.7c.6.4.6.9.2,1.6l-.8,1.2a14.31,14.31,0,0,1-1.1,1.5,12.67,12.67,0,0,1-1.1,1.3,1.05,1.05,0,0,1-.9.5.82.82,0,0,1-1-.7v-.1a4.08,4.08,0,0,1,.1-1.9l.6-2.1A4,4,0,0,1,76.7,141.94Z"/><path class="cls-1" d="M96,163.34c0-1.2.1-2.4.2-3.6.2-1.4.4-2.9.6-4.4s.6-3.1.9-4.7.7-3.1,1.1-4.5a77.5,77.5,0,0,0-4.2,8.1c-1.2,2.7-2.4,5.5-3.5,8.4a.52.52,0,0,1-.2.4c0,.2-.1.2-.3.2s-.3-.1-.4-.3a1.76,1.76,0,0,1-.4-.5.91.91,0,0,1-.3-.7c0-.2-.1-.5-.1-.8a31.84,31.84,0,0,1-.1-6.9c.2-2.3.4-4.8.7-7.4a49.18,49.18,0,0,0-1.6,5c-.5,1.8-1,3.5-1.4,5.2s-.8,3.2-1,4.6c-.2,1.1-.4,2.1-.5,3.2,0,.3-.2.4-.5.4a1.88,1.88,0,0,1-.8-.2,5.94,5.94,0,0,1-.8-.4c-.2-.2-.5-.4-.6-.6a.91.91,0,0,1-.3-.7c.1-1.2.2-2.4.4-3.5.2-1.4.5-2.8.8-4.3s.7-3.1,1.1-4.6.8-3,1.3-4.4.9-2.6,1.3-3.7a11.51,11.51,0,0,1,1.2-2.5c.3-.5.6-.8.8-.8a2.92,2.92,0,0,1,.9.2,6.12,6.12,0,0,1,1.2.5c.3.2.7.4,1,.6s.4.4.4.5-.1.1-.1.2-.1.2-.1.3a56.27,56.27,0,0,0-1.1,8.1,64.25,64.25,0,0,0-.1,7.6c1.3-2.9,2.8-5.7,4.3-8.4s3.2-5.4,5-8l.3-.4c.1-.2.3-.3.4-.5a1,1,0,0,1,.5-.4.76.76,0,0,1,.4-.2,1.88,1.88,0,0,1,.8.2c.3.1.7.3,1,.4a4.05,4.05,0,0,1,.9.5c.3.2.4.4.4.5s0,.2-.1.2l-.3.3c-.1.1-.2.2-.2.3a14.76,14.76,0,0,0-1.2,2.9,37.93,37.93,0,0,0-1.2,4c-.3,1.4-.8,3-1.2,4.6s-.7,3.1-1,4.6-.5,2.8-.7,3.9a24.52,24.52,0,0,0-.2,2.7.55.55,0,0,1-.3.5H99a1.88,1.88,0,0,1-.8-.2,3.55,3.55,0,0,1-.9-.4,1.34,1.34,0,0,1-.7-.6C96.1,163.84,96,163.64,96,163.34Z"/><path class="cls-1" d="M108.8,162.44a2,2,0,0,0,.1-.8c0-.3.1-.5.1-.8v-.3a15.5,15.5,0,0,1-2,3.2,3.13,3.13,0,0,1-2.5,1.3,2.64,2.64,0,0,1-1.9-.7,3,3,0,0,1-.8-1.8,14.47,14.47,0,0,1,.1-3.6A17.39,17.39,0,0,1,103,155a17,17,0,0,1,1.9-3.5,8.48,8.48,0,0,1,2.6-2.4,1.69,1.69,0,0,1,1-.3,3.55,3.55,0,0,1,1,.2,4.67,4.67,0,0,1,1,.5l1.1.6a.31.31,0,0,0,.1-.2.37.37,0,0,1,.1-.3c.2-.4.4-.5.6-.5a1.7,1.7,0,0,1,.7.1,6.11,6.11,0,0,1,1.4.7,1.76,1.76,0,0,1,.5.4.37.37,0,0,1,.2.5v.1a4.88,4.88,0,0,0-.3.7c-.3.9-.6,1.8-.9,2.8s-.6,2-.8,3-.5,1.9-.6,2.9l-.4,2.4c0,.3,0,.5.1.5a.52.52,0,0,0,.4-.2,11.78,11.78,0,0,0,1.7-2.2,21.48,21.48,0,0,0,1.4-2.6c.4-.9.8-1.8,1.1-2.7s.6-1.7.9-2.4c.1-.1.2-.3.3-.3a.3.3,0,0,1,.4,0l.3.3a.3.3,0,0,1,0,.4c-.2.4-.4,1.1-.7,1.8s-.6,1.6-1,2.4-.8,1.7-1.3,2.6a15.76,15.76,0,0,1-1.5,2.4,13.72,13.72,0,0,1-1.6,1.8,2.57,2.57,0,0,1-1.6.7,2.39,2.39,0,0,1-.9-.2,4.35,4.35,0,0,1-.7-.6,3.55,3.55,0,0,1-.4-.9A1.82,1.82,0,0,1,108.8,162.44Zm-3.1.6a1.45,1.45,0,0,0,1-.7,9.91,9.91,0,0,0,1.1-1.7,16,16,0,0,0,1-2.3c.3-.8.6-1.7.9-2.4s.5-1.5.7-2.1.4-1.1.5-1.4.1-.4.2-.5.1-.3.2-.5a.88.88,0,0,0-1-.5,2.72,2.72,0,0,0-2,1.1,9.7,9.7,0,0,0-1.6,2.8,19.3,19.3,0,0,0-1.1,3.4,28.68,28.68,0,0,0-.5,3.1v1.1a.76.76,0,0,0,.2.5A1,1,0,0,0,105.7,163Z"/><path class="cls-1" d="M117.4,165.34a2.93,2.93,0,0,1-1.6-.4,2.84,2.84,0,0,1-1-.9,2.66,2.66,0,0,1-.3-1.2,2.84,2.84,0,0,1,.4-1.3,2.54,2.54,0,0,1,1.2-1.1,7.49,7.49,0,0,1,1.6-.4l1.3-.1a5,5,0,0,0,1.2-.2,4.92,4.92,0,0,0-.6-1.7c-.3-.5-.7-1-1.1-1.6a9.5,9.5,0,0,1-1-1.7,3.61,3.61,0,0,1-.4-2.1,3.29,3.29,0,0,1,.4-1.7,4.12,4.12,0,0,1,1-1.3,6.38,6.38,0,0,1,1.4-.8,4.53,4.53,0,0,1,1.6-.3,2,2,0,0,1,1.1.3,3.13,3.13,0,0,1,1.1.9,4.44,4.44,0,0,1,.8,1.1,2.28,2.28,0,0,1,.3,1.1c0,.2-.1.5-.1.7a3,3,0,0,1-.4.8,2.65,2.65,0,0,1-.5.6.76.76,0,0,1-.5.2,3.19,3.19,0,0,1-1.4-.3c-.5-.2-.7-.5-.7-.7s0-.1.1-.2a1.15,1.15,0,0,0,.9-.6,5.64,5.64,0,0,0,.4-1.2.73.73,0,0,0-.2-.6.55.55,0,0,0-.5-.3.71.71,0,0,0-.6.3,4.23,4.23,0,0,0-.5.7c-.1.3-.2.5-.3.8a1.7,1.7,0,0,0-.1.7,2.82,2.82,0,0,0,.4,1.5,5.67,5.67,0,0,0,.8,1.3l1,1.3a5.67,5.67,0,0,1,.8,1.3,8.68,8.68,0,0,0,2.7-2.3,13.69,13.69,0,0,0,1.6-3.2.32.32,0,0,1,.3-.3.57.57,0,0,1,.7.2.3.3,0,0,1,0,.4,10.67,10.67,0,0,1-2,3.8,9.13,9.13,0,0,1-3,2.5,4.09,4.09,0,0,1-.4,2.4,5.86,5.86,0,0,1-3.7,2.9A2.93,2.93,0,0,1,117.4,165.34Zm2.8-4.3a3.81,3.81,0,0,1-1.5.1,4.4,4.4,0,0,0-1.6.2,1.46,1.46,0,0,0-.9.6,1,1,0,0,0-.1.9,1.06,1.06,0,0,0,.6.7,1.27,1.27,0,0,0,1.2,0,3.27,3.27,0,0,0,1.5-1.1A3.69,3.69,0,0,0,120.2,161Z"/><path class="cls-1" d="M132.2,162.44a2.2,2.2,0,0,0,.1-.8,2.2,2.2,0,0,1,.1-.8v-.3a15.5,15.5,0,0,1-2,3.2A3.09,3.09,0,0,1,128,165a2.64,2.64,0,0,1-1.9-.7,3,3,0,0,1-.8-1.8,14.47,14.47,0,0,1,.1-3.6,17.39,17.39,0,0,1,1.1-3.9,17,17,0,0,1,1.9-3.5,8.48,8.48,0,0,1,2.6-2.4,1.69,1.69,0,0,1,1-.3,3.55,3.55,0,0,1,1,.2,3.13,3.13,0,0,1,1,.5l1.1.6a.31.31,0,0,0,.1-.2.37.37,0,0,1,.1-.3c.2-.4.4-.5.6-.5a2,2,0,0,1,.7.1,4.88,4.88,0,0,1,.7.3,2.51,2.51,0,0,1,.7.4,1,1,0,0,1,.5.4c.2.1.3.4.1.5h0a4.88,4.88,0,0,0-.3.7c-.3.9-.6,1.8-.9,2.8s-.6,2-.8,3-.5,1.9-.6,2.9-.4,1.7-.5,2.5c0,.3,0,.5.1.5a.52.52,0,0,0,.4-.2,11.78,11.78,0,0,0,1.7-2.2,21.48,21.48,0,0,0,1.4-2.6c.4-.9.8-1.8,1.1-2.7s.6-1.7.9-2.4c.1-.1.2-.3.3-.3a.3.3,0,0,1,.4,0l.3.3a.3.3,0,0,1,0,.4c-.2.4-.4,1.1-.7,1.8s-.6,1.6-1,2.4-.8,1.7-1.3,2.6a15.76,15.76,0,0,1-1.5,2.4c-.5.6-1,1.2-1.6,1.8a2.84,2.84,0,0,1-1.7.7,3.55,3.55,0,0,1-1-.2,4.35,4.35,0,0,1-.7-.6,7.11,7.11,0,0,1-.4-2Zm-3.1.6a1.45,1.45,0,0,0,1-.7,9.91,9.91,0,0,0,1.1-1.7,16,16,0,0,0,1-2.3c.3-.8.6-1.7.9-2.4s.5-1.5.7-2.1.4-1.1.5-1.4.1-.4.2-.5.1-.3.2-.5a1,1,0,0,0-1-.5,2.37,2.37,0,0,0-1.9,1.1,9.7,9.7,0,0,0-1.6,2.8,19.3,19.3,0,0,0-1.1,3.4,15.44,15.44,0,0,0-.5,3.1v1.1a.76.76,0,0,0,.2.5A1,1,0,0,0,129.1,163Z"/><path class="cls-1" d="M138.8,161.24c.1-1.3.3-2.7.5-4.3a40.48,40.48,0,0,1,.9-4.8c.4-1.6.7-3.2,1.1-4.7s.8-2.9,1.2-4.1a24.88,24.88,0,0,1,1.1-2.9c.4-.7.7-1.1.9-1.1a2.92,2.92,0,0,1,.9.2c.4.1.8.3,1.2.4a4.67,4.67,0,0,1,1,.5c.3.2.4.4.4.5s0,.1-.1.2l-.3.3c-.1.1-.2.2-.2.3a32,32,0,0,0-1.6,3.9c-.6,1.7-1.1,3.6-1.6,5.6s-.9,4-1.3,5.9-.7,3.7-.9,5.1c-.1.5,0,.7.1.8s.3,0,.6-.3a11.22,11.22,0,0,0,1.6-2.2c.5-.9,1-1.7,1.4-2.6s.8-1.8,1.2-2.6.6-1.6.9-2.3c.1-.1.2-.3.3-.3a.3.3,0,0,1,.4,0l.3.3a.3.3,0,0,1,0,.4c-.2.4-.4,1.1-.7,1.8s-.6,1.6-1,2.4-.8,1.7-1.3,2.6-1,1.6-1.5,2.4c-.5.6-1,1.2-1.6,1.8a2.84,2.84,0,0,1-1.7.7,2,2,0,0,1-1.3-.4,2.07,2.07,0,0,1-.6-1,5.07,5.07,0,0,1-.2-1.3A1.67,1.67,0,0,1,138.8,161.24Z"/><path class="cls-1" d="M152.2,162.44c0-.3.1-.5.1-.8a2.2,2.2,0,0,1,.1-.8v-.3a15.5,15.5,0,0,1-2,3.2A3.09,3.09,0,0,1,148,165a2.64,2.64,0,0,1-1.9-.7,3,3,0,0,1-.8-1.8,14.47,14.47,0,0,1,.1-3.6,17.39,17.39,0,0,1,1.1-3.9,17,17,0,0,1,1.9-3.5,8.48,8.48,0,0,1,2.6-2.4,1.69,1.69,0,0,1,1-.3,3.55,3.55,0,0,1,1,.2,4.67,4.67,0,0,1,1,.5l1.1.6a.31.31,0,0,0,.1-.2.37.37,0,0,1,.1-.3c.2-.4.4-.5.6-.5s.4.1.7.1a6.11,6.11,0,0,1,1.4.7,1.76,1.76,0,0,1,.5.4c.2.1.3.4.2.5h0a4.88,4.88,0,0,0-.3.7c-.3.9-.6,1.8-.9,2.8s-.6,2-.8,3-.5,1.9-.6,2.9-.4,1.7-.5,2.5c-.1.3,0,.5.1.5a.52.52,0,0,0,.4-.2,18.39,18.39,0,0,0,1.7-2.2,21.48,21.48,0,0,0,1.4-2.6c.4-.9.8-1.8,1.1-2.7s.6-1.7.9-2.4c.1-.1.2-.3.3-.3a.3.3,0,0,1,.4,0q.15,0,.3.3a.3.3,0,0,1,0,.4c-.2.4-.4,1.1-.7,1.8s-.6,1.6-1,2.4-.8,1.7-1.3,2.6a15.76,15.76,0,0,1-1.5,2.4c-.5.6-1,1.2-1.6,1.8a2.84,2.84,0,0,1-1.7.7,2.39,2.39,0,0,1-.9-.2,4.35,4.35,0,0,1-.7-.6,3.55,3.55,0,0,1-.4-.9A2.56,2.56,0,0,1,152.2,162.44Zm-3.1.6a1.45,1.45,0,0,0,1-.7,9.91,9.91,0,0,0,1.1-1.7,16,16,0,0,0,1-2.3c.3-.8.6-1.7.9-2.4s.5-1.5.7-2.1l.5-1.4.2-.5c.1-.2.1-.3.2-.5a.88.88,0,0,0-1-.5,2.37,2.37,0,0,0-1.9,1.1,9.7,9.7,0,0,0-1.6,2.8,19.3,19.3,0,0,0-1.1,3.4,15.44,15.44,0,0,0-.5,3.1v1.1a.76.76,0,0,0,.2.5A1,1,0,0,0,149.1,163Z"/><path class="cls-1" d="M165.5,162.44a53,53,0,0,1,1-5.5,55.17,55.17,0,0,1,1.6-5.4,25.6,25.6,0,0,0-2,2.6,23.81,23.81,0,0,0-1.8,3c-.5,1-1,2.1-1.4,3.1a16.12,16.12,0,0,0-.9,2.9c0,.2-.1.5-.1.8v.7a.55.55,0,0,1-.3.5h-.1a1.88,1.88,0,0,1-.8-.2,3.55,3.55,0,0,1-.9-.4,1.34,1.34,0,0,1-.7-.6.86.86,0,0,1-.3-.6c0-1.4.1-2.8.2-4.2.2-1.6.5-3.4.8-5.1s.7-3.6,1.1-5.3a44.91,44.91,0,0,1,1.3-4.7,19.57,19.57,0,0,1,1.2-3.4c.4-.9.7-1.3,1-1.3a2.92,2.92,0,0,1,.9.2c.4.1.8.3,1.2.4a4.67,4.67,0,0,1,1,.5c.3.2.4.4.4.5s0,.1-.1.2l-.3.3c-.1.1-.2.2-.2.3a16.86,16.86,0,0,0-1.2,2.8q-.6,1.8-1.2,3.9c-.4,1.4-.8,2.9-1.1,4.5s-.7,3-.9,4.5a30,30,0,0,1,2.6-4.6,17.77,17.77,0,0,1,3.2-3.5,1.14,1.14,0,0,1,.8-.3c.2,0,.5.1.7.1l.9.3a2.18,2.18,0,0,1,.8.5.55.55,0,0,1,.3.5v.2c0,.1,0,.1-.1.2l-.2.5c-.1.2-.1.3-.2.5l-.9,2.7c-.3.9-.6,1.9-.8,2.8a26.14,26.14,0,0,0-.6,2.7c-.1.9-.4,1.6-.5,2.3s.1.7.6.3a18.39,18.39,0,0,0,1.7-2.2c.5-.9,1-1.7,1.5-2.6a16,16,0,0,0,1.2-2.7c.3-.9.7-1.7.9-2.4a.32.32,0,0,1,.3-.3.3.3,0,0,1,.4,0l.3.3a.3.3,0,0,1,0,.4l-.7,1.8a24.43,24.43,0,0,1-1,2.4c-.4.8-.8,1.7-1.3,2.6s-1,1.6-1.5,2.4a9.58,9.58,0,0,1-1.7,1.8,2.84,2.84,0,0,1-1.7.7,2.39,2.39,0,0,1-.9-.2,4.35,4.35,0,0,1-.7-.6,4.05,4.05,0,0,1-.5-.9C165.5,163,165.5,162.74,165.5,162.44Z"/><path class="cls-1" d="M182.7,165.24a1.42,1.42,0,0,1-.2-.6,1.27,1.27,0,0,1,.1-.6c0-.1.1-.2.2-.3s.2,0,.3.2a2,2,0,0,0,1.8,1.2,4,4,0,0,0,2.5-1,11.78,11.78,0,0,0,2.3-2.7,27.54,27.54,0,0,0,2-3.8,37.07,37.07,0,0,0,2.5-8.8,16.17,16.17,0,0,0,.2-3.8,6.6,6.6,0,0,0-.6-2.7,1.78,1.78,0,0,0-1.6-1,2.27,2.27,0,0,0-1.6.6,7.31,7.31,0,0,0-1.4,1.6,11.78,11.78,0,0,0-1.1,1.9c-.3.7-.6,1.2-.8,1.7a40.9,40.9,0,0,0-1.6,4.2c-.5,1.5-1,3-1.5,4.6s-.9,3.1-1.3,4.6-.7,2.9-1,4.2a.76.76,0,0,1-.2.4c0,.1-.2.1-.4.1a1.88,1.88,0,0,1-.8-.2,3.55,3.55,0,0,1-.9-.4,2,2,0,0,1-.7-.6.86.86,0,0,1-.3-.6,27.28,27.28,0,0,1,.3-4.1c.2-1.6.5-3.3.8-5.1s.7-3.6,1.1-5.3a40.91,40.91,0,0,1,1.3-4.8,34,34,0,0,1,1.2-3.4c.4-.9.7-1.3,1-1.3a2.92,2.92,0,0,1,.9.2c.4.1.8.3,1.2.4a4.67,4.67,0,0,1,1,.5c.3.2.4.4.4.5s0,.1-.1.2l-.3.3c-.1.1-.2.2-.2.3a16,16,0,0,0-1,2.3,22.59,22.59,0,0,0-1,3.1c-.3,1.1-.7,2.4-1,3.6s-.6,2.6-.9,3.9c.5-1.4.9-2.9,1.4-4.2l1.5-3.9c.3-.6.6-1.4,1-2.2a13.77,13.77,0,0,1,1.4-2.4,8.56,8.56,0,0,1,1.9-1.9,4.07,4.07,0,0,1,2.4-.8,4.14,4.14,0,0,1,3.2,1.2,6.61,6.61,0,0,1,1.6,3.1,16.32,16.32,0,0,1,.3,4.4,30.31,30.31,0,0,1-.9,5.1,31.3,31.3,0,0,1-1.9,5.1,17.94,17.94,0,0,1-2.7,4.4,12.19,12.19,0,0,1-3.3,3.1,6.28,6.28,0,0,1-3.7,1.2,3.08,3.08,0,0,1-2.8-1.6Z"/><path class="cls-1" d="M197.3,162.44c0-.3.1-.5.1-.8a2.2,2.2,0,0,1,.1-.8,54.15,54.15,0,0,1,1.2-5.8q.75-2.7,1.8-5.4c.2-.4.4-.5.6-.5s.4.1.7.1a6.11,6.11,0,0,1,1.4.7,1.76,1.76,0,0,1,.5.4.37.37,0,0,1,.2.5v.1a4.88,4.88,0,0,0-.3.7c-.3.9-.7,1.8-1,2.8l-.9,3c-.3,1-.5,1.9-.7,2.9s-.4,1.7-.5,2.5c-.1.3,0,.5.1.5a.52.52,0,0,0,.4-.2,11.78,11.78,0,0,0,1.7-2.2c.5-.8,1-1.7,1.5-2.6l1.2-2.7a18.63,18.63,0,0,0,.9-2.4c.1-.1.2-.3.3-.3a.3.3,0,0,1,.4,0q.15,0,.3.3a.3.3,0,0,1,0,.4c-.2.4-.4,1.1-.7,1.8s-.6,1.6-1,2.4-.8,1.7-1.3,2.6l-1.5,2.4a9.58,9.58,0,0,1-1.7,1.8,2.84,2.84,0,0,1-1.7.7,2.39,2.39,0,0,1-.9-.2,4.35,4.35,0,0,1-.7-.6,3.55,3.55,0,0,1-.4-.9A6.25,6.25,0,0,1,197.3,162.44Zm6.5-20.5c.4-.7.7-1.1,1-1.1a4.87,4.87,0,0,1,1.1.4,5.39,5.39,0,0,1,1.3.7c.6.4.6.9.2,1.6a12.25,12.25,0,0,1-.8,1.2,14.31,14.31,0,0,1-1.1,1.5,12.67,12.67,0,0,1-1.1,1.3,1.19,1.19,0,0,1-.9.5.82.82,0,0,1-1-.7v-.1a4.08,4.08,0,0,1,.1-1.9l.6-2.1A8.51,8.51,0,0,1,203.8,141.94Z"/><path class="cls-1" d="M211,160.74a12.65,12.65,0,0,1-2,3.1,3.13,3.13,0,0,1-2.5,1.3,2.64,2.64,0,0,1-1.9-.7,2.5,2.5,0,0,1-.8-1.8,14.47,14.47,0,0,1,.1-3.6,17.39,17.39,0,0,1,1.1-3.9,17,17,0,0,1,1.9-3.5,8.48,8.48,0,0,1,2.6-2.4,1.23,1.23,0,0,1,1-.2,3.59,3.59,0,0,1,1.1.2,4.67,4.67,0,0,1,1,.5,9.29,9.29,0,0,0,1,.5.35.35,0,0,1,.1-.2c0-.1.1-.2.1-.3.1-.4.3-.5.6-.5a3.26,3.26,0,0,1,1.4.4c.4.2.8.5,1.2.7a.52.52,0,0,1,.2.4.76.76,0,0,1-.2.4,4.18,4.18,0,0,0-.4,1,30.3,30.3,0,0,0-1.2,4.3c-.3,1.5-.7,2.8-1,4l-.1.4a19.73,19.73,0,0,0,3-3.4,14.91,14.91,0,0,0,2.3-4.3.32.32,0,0,1,.3-.3.3.3,0,0,1,.4,0c.1.1.2.1.3.3a.3.3,0,0,1,0,.4,16.83,16.83,0,0,1-3,5.2,28,28,0,0,1-3.8,3.9c-.3,1.3-.6,2.6-1,3.9s-.8,2.6-1.2,3.8a9.38,9.38,0,0,1-1.9,3.2,4.57,4.57,0,0,1-3.5,1.2,3.19,3.19,0,0,1-1.4-.3,2.94,2.94,0,0,1-1.2-1,3.1,3.1,0,0,1-.6-1.3,3.3,3.3,0,0,1,0-1.4,7.84,7.84,0,0,1,.5-1.4,8.34,8.34,0,0,1,.8-1.2,13.58,13.58,0,0,1,1.2-1.2,12.13,12.13,0,0,1,1.4-1l1.5-.9c.5-.3,1-.6,1.4-.9.2-.6.3-1.1.5-1.7S210.8,161.24,211,160.74Zm-5,12.1a1.61,1.61,0,0,0,1.1-.5,3.19,3.19,0,0,0,.9-1.6c.2-.7.5-1.5.7-2.3l.8-2.6c-.5.3-1,.7-1.5,1s-1.1.8-1.6,1.2a4.43,4.43,0,0,0-1.2,1.5,2.69,2.69,0,0,0-.4,1.8,1.69,1.69,0,0,0,.3,1A1.05,1.05,0,0,0,206,172.84Zm6.3-22a2.37,2.37,0,0,0-1.9,1.1,12.75,12.75,0,0,0-1.6,2.8,19.3,19.3,0,0,0-1.1,3.4,28.68,28.68,0,0,0-.5,3.1v1.1a.76.76,0,0,0,.2.5.52.52,0,0,0,.4.2,1.45,1.45,0,0,0,1-.7,9.5,9.5,0,0,0,1-1.7,12.24,12.24,0,0,0,1-2.3q.45-1.35.9-2.4c.3-.7.5-1.5.7-2.1s.4-1.1.5-1.4.1-.4.2-.5.1-.3.2-.5a1.22,1.22,0,0,0-1-.6Z"/><path class="cls-1" d="M217.3,162.44a2,2,0,0,0,.1-.8c0-.3.1-.5.1-.8a54.15,54.15,0,0,1,1.2-5.8q.75-2.7,1.8-5.4c.2-.4.4-.5.6-.5a1.7,1.7,0,0,1,.7.1,6.11,6.11,0,0,1,1.4.7,1.76,1.76,0,0,1,.5.4.37.37,0,0,1,.2.5v.1a4.88,4.88,0,0,0-.3.7,23.07,23.07,0,0,0-1,2.8l-.9,3c-.3,1-.5,1.9-.7,2.9s-.4,1.7-.5,2.5c0,.3,0,.5.1.5a.52.52,0,0,0,.4-.2,11.78,11.78,0,0,0,1.7-2.2c.5-.8,1-1.7,1.5-2.6s.9-1.8,1.2-2.7.7-1.7.9-2.4c.1-.1.2-.3.3-.3a.3.3,0,0,1,.4,0l.3.3a.3.3,0,0,1,0,.4c-.2.5-.4,1.1-.7,1.8a24.43,24.43,0,0,1-1,2.4c-.4.8-.9,1.7-1.3,2.6s-1,1.6-1.5,2.4a9.58,9.58,0,0,1-1.7,1.8,2.84,2.84,0,0,1-1.7.7,2.39,2.39,0,0,1-.9-.2,4.35,4.35,0,0,1-.7-.6,3.55,3.55,0,0,1-.4-.9A6.25,6.25,0,0,1,217.3,162.44Zm6.5-20.5c.4-.7.7-1.1,1-1.1a4.87,4.87,0,0,1,1.1.4,5.39,5.39,0,0,1,1.3.7c.6.4.6.9.2,1.6l-.8,1.2a14.31,14.31,0,0,1-1.1,1.5,12.67,12.67,0,0,1-1.1,1.3,1.05,1.05,0,0,1-.9.5.82.82,0,0,1-1-.7v-.1a4.08,4.08,0,0,1,.1-1.9l.6-2.1a4,4,0,0,1,.6-1.3Z"/><path class="cls-1" d="M232.6,143.74a2.19,2.19,0,0,0-.3.5c-.1.2-.1.3-.2.5s-.1.4-.2.6-.1.4-.2.6a10.87,10.87,0,0,1,1.8.1,2.45,2.45,0,0,1,1.2.4c.1,0,.1.1.2.2s.1.3.2.5.1.3.1.5v.4c0,.2,0,.3-.2.4h-.1a5.66,5.66,0,0,0-1.8-.3c-.7,0-1.3-.1-2-.1-.4,1.2-.7,2.4-1,3.7s-.6,2.6-.9,3.8-.5,2.5-.8,3.6a19.82,19.82,0,0,0-.5,3.1c0,.5,0,.7.1.8s.3,0,.6-.3c.6-.7,1.2-1.4,1.8-2.2s1.1-1.7,1.6-2.6,1-1.8,1.4-2.6.7-1.6,1-2.3c.1-.1.2-.3.3-.3a.3.3,0,0,1,.4,0q.15,0,.3.3a.3.3,0,0,1,0,.4,12.63,12.63,0,0,1-.8,1.8,13.44,13.44,0,0,1-1.2,2.4c-.5.8-1,1.7-1.5,2.6s-1.1,1.6-1.7,2.4a15.27,15.27,0,0,1-1.8,1.8,3.63,3.63,0,0,1-1.7.7,2,2,0,0,1-1.3-.4,2.07,2.07,0,0,1-.6-1,5.07,5.07,0,0,1-.2-1.3v-1.3c.1-.9.2-1.9.4-3l.6-3.3c.2-1.1.5-2.3.7-3.4s.5-2.3.8-3.4h-1.6a2.77,2.77,0,0,1-.9-.1,1.14,1.14,0,0,1-.8-.3,1.47,1.47,0,0,1-.5-.6c-.1-.3,0-.5.4-.5a13.4,13.4,0,0,0,2-.1l1.9-.2c.1-.5.3-1.1.4-1.6a8.8,8.8,0,0,1,.5-1.5q.6-1.5,1.2-1.5a1.88,1.88,0,0,1,.8.2c.4.1.7.3,1.1.4s.6.3.9.5.4.4.4.5-.1.1-.1.2a.77.77,0,0,1-.2.3Z"/><path class="cls-1" d="M238.7,162.44a2,2,0,0,0,.1-.8c0-.3.1-.5.1-.8v-.3a15.5,15.5,0,0,1-2,3.2,3.13,3.13,0,0,1-2.5,1.3,2.64,2.64,0,0,1-1.9-.7,3,3,0,0,1-.8-1.8,14.47,14.47,0,0,1,.1-3.6,17.39,17.39,0,0,1,1.1-3.9,17,17,0,0,1,1.9-3.5,8.48,8.48,0,0,1,2.6-2.4,1.69,1.69,0,0,1,1-.3,3.55,3.55,0,0,1,1,.2,4.67,4.67,0,0,1,1,.5l1.1.6c.1-.1.1-.1.1-.2s.1-.2.1-.3c.2-.4.4-.5.6-.5a1.7,1.7,0,0,1,.7.1,6.11,6.11,0,0,1,1.4.7,1.76,1.76,0,0,1,.5.4.37.37,0,0,1,.2.5v.1a4.88,4.88,0,0,0-.3.7c-.3.9-.6,1.8-.9,2.8s-.6,2-.8,3-.5,1.9-.6,2.9l-.5,2.5c0,.3,0,.5.1.5a.52.52,0,0,0,.4-.2,11.78,11.78,0,0,0,1.7-2.2,21.48,21.48,0,0,0,1.4-2.6c.4-.9.8-1.8,1.1-2.7s.6-1.7.9-2.4c.1-.1.2-.3.3-.3a.3.3,0,0,1,.4,0,.52.52,0,0,1,.3.7c-.2.4-.4,1.1-.7,1.8s-.6,1.6-1,2.4-.8,1.7-1.3,2.6a15.76,15.76,0,0,1-1.5,2.4c-.5.6-1,1.2-1.6,1.8a2.84,2.84,0,0,1-1.7.7,2.39,2.39,0,0,1-.9-.2,4.35,4.35,0,0,1-.7-.6,3.55,3.55,0,0,1-.4-.9A1.75,1.75,0,0,1,238.7,162.44Zm-3.1.6a1.45,1.45,0,0,0,1-.7,9.91,9.91,0,0,0,1.1-1.7,16,16,0,0,0,1-2.3c.3-.8.6-1.7.9-2.4s.5-1.5.7-2.1.4-1.1.5-1.4.1-.4.2-.5.1-.3.2-.5a.88.88,0,0,0-1-.5,2.72,2.72,0,0,0-2,1.1,9.7,9.7,0,0,0-1.6,2.8,19.3,19.3,0,0,0-1.1,3.4,28.68,28.68,0,0,0-.5,3.1v1.1a.76.76,0,0,0,.2.5A1,1,0,0,0,235.6,163Z"/><path class="cls-1" d="M245.2,161.24c.1-1.3.3-2.7.5-4.3a40.48,40.48,0,0,1,.9-4.8c.4-1.6.7-3.2,1.1-4.7s.8-2.9,1.2-4.1a24.88,24.88,0,0,1,1.1-2.9c.3-.7.6-1.1.9-1.1a2.92,2.92,0,0,1,.9.2c.4.1.8.3,1.2.4a4.67,4.67,0,0,1,1,.5c.3.2.4.4.4.5s0,.1-.1.2l-.3.3c-.1.1-.2.2-.2.3a21.38,21.38,0,0,0-1.6,3.9c-.5,1.7-1.1,3.6-1.6,5.6s-.9,4-1.3,5.9-.7,3.7-.9,5.1c0,.5,0,.7.1.8s.3,0,.6-.3a11.22,11.22,0,0,0,1.6-2.2c.5-.9,1-1.7,1.4-2.6s.8-1.8,1.2-2.6.6-1.6.9-2.3c.1-.1.2-.3.3-.3a.3.3,0,0,1,.4,0l.3.3a.3.3,0,0,1,0,.4c-.2.5-.4,1.1-.7,1.8a24.43,24.43,0,0,1-1,2.4c-.4.8-.9,1.7-1.3,2.6s-1,1.6-1.5,2.4c-.5.6-1,1.2-1.6,1.8a2.84,2.84,0,0,1-1.7.7,2,2,0,0,1-1.3-.4,2.07,2.07,0,0,1-.6-1,5.07,5.07,0,0,1-.2-1.3A4.87,4.87,0,0,1,245.2,161.24Z"/><path class="cls-1" d="M258.1,153.44a.75.75,0,0,1,.1-.5q0-.15.3,0a15.46,15.46,0,0,0,2.3.7,9.86,9.86,0,0,0,2.4.3h0c1.9-2.5,3.8-5,5.7-7.3s3.8-4.6,5.7-6.8a.48.48,0,0,1,.6-.2,3,3,0,0,1,.8.4,1.07,1.07,0,0,1,.6-.6,2.92,2.92,0,0,1,.9.2c.4.1.8.3,1.2.4a4.67,4.67,0,0,1,1,.5c.3.2.4.4.4.5s0,.1-.1.2l-.3.3c-.1.1-.2.2-.2.3a14.76,14.76,0,0,0-1.2,2.9,37.93,37.93,0,0,0-1.2,4c-.3,1.4-.8,3-1.2,4.6s-.7,3.1-1,4.6-.5,2.8-.7,3.9a24.52,24.52,0,0,0-.2,2.7.55.55,0,0,1-.3.5h-.1a1.88,1.88,0,0,1-.8-.2,3.55,3.55,0,0,1-.9-.4,1.34,1.34,0,0,1-.7-.6.86.86,0,0,1-.3-.6c0-1.1.1-2.3.2-3.4.2-1.3.4-2.8.6-4.3-1.1.1-2.2.2-3.3.4s-2.1.4-3.2.5c-.7,1.1-1.4,2.3-2.2,3.6s-1.5,2.5-2.1,3.6a1.61,1.61,0,0,1-.4.7,2.35,2.35,0,0,0-.2.8.35.35,0,0,1-.1.2,1.49,1.49,0,0,1-.7,0c-.4-.1-.7-.3-1.1-.4s-.7-.4-1.1-.6a2,2,0,0,1-.7-.6.75.75,0,0,1-.1-.5.76.76,0,0,1,.2-.5c.1-.2.2-.3.3-.5s.2-.3.3-.4c.6-.8,1.2-1.7,1.9-2.7s1.3-1.9,1.9-2.7a5.85,5.85,0,0,1-1.9-.4c-.2-.1-.3-.3-.4-.4a5.9,5.9,0,0,0-.4-.8l-.3-.9Zm13.2,0a3.55,3.55,0,0,1,1,.2c.3-1.7.7-3.5,1.1-5.1s.8-3.2,1.2-4.6c-1.2,1.5-2.5,3.1-3.7,4.8s-2.4,3.3-3.5,5l2-.2a5.75,5.75,0,0,1,1.9-.1Z"/><path class="cls-1" d="M276.6,163.24c.1-1,.2-2.2.4-3.4s.5-2.4.8-3.6a35.74,35.74,0,0,1,1-3.5,16.59,16.59,0,0,1,1.2-3.1c.1-.4.3-.5.6-.5a2,2,0,0,1,.7.1c.3.1.5.2.8.3a2.51,2.51,0,0,1,.7.4,1.76,1.76,0,0,1,.5.4c.2.1.3.4.1.5h0a4.88,4.88,0,0,0-.3.7c-.4,1-.7,2-1.1,3.1s-.6,2.2-.9,3.3l1.2-2.4c.4-.8.9-1.6,1.4-2.4s.9-1.4,1.5-2.1a7.52,7.52,0,0,1,1.5-1.6,1.14,1.14,0,0,1,.8-.3c.2,0,.4.1.6.1l.9.3a2.18,2.18,0,0,1,.8.5.55.55,0,0,1,.3.5c0,.2,0,.3-.1.4s-.2.3-.2.5l-.2.5-.9,2.7c-.3.9-.5,1.9-.8,2.8a26.81,26.81,0,0,0-.7,2.7c-.2.9-.4,1.6-.5,2.3,0,.3,0,.5.1.5a.65.65,0,0,0,.5-.2,11.78,11.78,0,0,0,1.7-2.2c.5-.8,1-1.7,1.5-2.6l1.2-2.7c.4-.9.7-1.7,1-2.4.1-.1.2-.3.3-.3a.3.3,0,0,1,.4,0l.3.3a.3.3,0,0,1,0,.4c-.2.5-.4,1.1-.7,1.8a24.43,24.43,0,0,1-1,2.4c-.4.8-.8,1.7-1.3,2.6s-1,1.6-1.5,2.4a9.58,9.58,0,0,1-1.7,1.8,2.84,2.84,0,0,1-1.7.7,2.19,2.19,0,0,1-1.7-.7,2,2,0,0,1-.6-1.5c.1-.9.3-1.8.4-2.8l.6-3c.2-1,.5-2,.8-3s.6-1.9.9-2.8a22,22,0,0,0-1.4,1.8c-.5.7-.9,1.5-1.4,2.3a21,21,0,0,0-1.3,2.6c-.4.9-.8,1.7-1.1,2.6s-.6,1.6-.8,2.3a5.08,5.08,0,0,0-.3,1.7c0,.2,0,.3-.1.4s-.2.1-.3.1a2.35,2.35,0,0,1-.8-.2,2.18,2.18,0,0,1-.8-.5c-.2-.2-.5-.4-.6-.6C276.8,163.64,276.7,163.44,276.6,163.24Z"/><path class="cls-1" d="M297.5,161.24v-.6c-.3.6-.6,1.2-.9,1.7a7.55,7.55,0,0,1-1.1,1.4,10.59,10.59,0,0,1-1.2,1,3.26,3.26,0,0,1-1.4.4,2.35,2.35,0,0,1-2.2-1,4.76,4.76,0,0,1-.7-2.3,20,20,0,0,1,.2-3.5,15.57,15.57,0,0,1,1-3.7,10.14,10.14,0,0,1,1.8-3.2,6.65,6.65,0,0,1,2.5-2.2,1.69,1.69,0,0,1,1-.3,3.55,3.55,0,0,1,1,.2c.3.1.7.3,1,.4s.6.3.9.5c.3-1.4.6-2.8,1-4.1s.7-2.4,1-3.4a24.43,24.43,0,0,1,1-2.4c.3-.6.6-.9.8-.9a2.92,2.92,0,0,1,.9.2c.4.1.8.3,1.2.4a4.67,4.67,0,0,1,1,.5c.3.2.4.4.4.5s0,.2-.1.2l-.3.3c-.1.1-.2.2-.2.3a32,32,0,0,0-1.6,3.9c-.5,1.7-1.1,3.6-1.6,5.6s-.9,4-1.3,5.9-.7,3.7-.9,5.1c-.1.9.1,1,.6.4a18.39,18.39,0,0,0,1.7-2.2c.5-.9,1-1.7,1.4-2.6s.8-1.8,1.2-2.6a13.57,13.57,0,0,0,.9-2.3c.1-.1.2-.3.3-.3a.3.3,0,0,1,.4,0l.3.3a.3.3,0,0,1,0,.4c-.2.5-.4,1.1-.7,1.8a24.43,24.43,0,0,1-1,2.4c-.4.8-.8,1.7-1.3,2.6s-1,1.6-1.5,2.4a9.58,9.58,0,0,1-1.7,1.8,2.84,2.84,0,0,1-1.7.7,2,2,0,0,1-1.3-.4,2.07,2.07,0,0,1-.6-1,5.07,5.07,0,0,1-.2-1.3Zm.7-10.4a2.23,2.23,0,0,0-1.8,1,9.39,9.39,0,0,0-1.4,2.6c-.4,1.1-.7,2.1-1,3.2s-.4,2-.5,3a4.33,4.33,0,0,0,.1,1.6.73.73,0,0,0,.7.6c.5,0,1-.4,1.5-1.3s.9-1.6,1.3-2.4c.4-1,.8-2,1.2-2.9l.4-2.4c.2-.8.3-1.6.5-2.4A1.22,1.22,0,0,0,298.2,150.84Z"/><path class="cls-1" d="M311,162.44a2.2,2.2,0,0,0,.1-.8,2.2,2.2,0,0,1,.1-.8v-.3a15.5,15.5,0,0,1-2,3.2,3.13,3.13,0,0,1-2.5,1.3,2.64,2.64,0,0,1-1.9-.7,3,3,0,0,1-.8-1.8,14.47,14.47,0,0,1,.1-3.6,17.39,17.39,0,0,1,1.1-3.9,17,17,0,0,1,1.9-3.5,8.48,8.48,0,0,1,2.6-2.4,1.69,1.69,0,0,1,1-.3,3.55,3.55,0,0,1,1,.2,4.67,4.67,0,0,1,1,.5l1.1.6a.31.31,0,0,0,.1-.2.37.37,0,0,1,.1-.3c.2-.4.4-.5.6-.5a2,2,0,0,1,.7.1,4.88,4.88,0,0,1,.7.3,2.51,2.51,0,0,1,.7.4,1,1,0,0,1,.5.4c.2.1.3.4.1.5h0a4.88,4.88,0,0,0-.3.7c-.3.9-.6,1.8-.9,2.8s-.6,2-.8,3-.5,1.9-.6,2.9a15.77,15.77,0,0,1-.5,2.5c-.1.3,0,.5.1.5a.52.52,0,0,0,.4-.2,11.78,11.78,0,0,0,1.7-2.2,21.48,21.48,0,0,0,1.4-2.6c.4-.9.8-1.8,1.1-2.7s.6-1.7.9-2.4c.1-.1.2-.3.3-.3a.3.3,0,0,1,.4,0l.3.3a.3.3,0,0,1,0,.4c-.2.4-.4,1.1-.7,1.8s-.6,1.6-1,2.4-.8,1.7-1.3,2.6a15.76,15.76,0,0,1-1.5,2.4c-.5.6-1,1.2-1.6,1.8a2.84,2.84,0,0,1-1.7.7,3.55,3.55,0,0,1-1-.2,4.35,4.35,0,0,1-.7-.6,4.65,4.65,0,0,1-.3-2Zm-3.1.6a1.45,1.45,0,0,0,1-.7,9.91,9.91,0,0,0,1.1-1.7,16,16,0,0,0,1-2.3c.3-.8.6-1.7.9-2.4s.5-1.5.7-2.1.4-1.1.5-1.4.1-.4.2-.5.1-.3.2-.5a1,1,0,0,0-1-.5,2.37,2.37,0,0,0-1.9,1.1,9.7,9.7,0,0,0-1.6,2.8,19.3,19.3,0,0,0-1.1,3.4,15.44,15.44,0,0,0-.5,3.1v1.1a.76.76,0,0,0,.2.5.44.44,0,0,0,.3.1Z"/><path class="cls-1" d="M495.3,38.24a3.57,3.57,0,0,1,0-4.9,3.39,3.39,0,1,1,4.8,4.8,3.49,3.49,0,0,1-2.4,1A3.58,3.58,0,0,1,495.3,38.24Z"/><path class="cls-1" d="M540.2,19.14q2.4,2.4,2.4,7.2v12.5h-5.1V26.94a6.12,6.12,0,0,0-1.3-4.3,4.91,4.91,0,0,0-3.6-1.5,5.16,5.16,0,0,0-4.1,1.7,6.58,6.58,0,0,0-1.5,4.8v11.1h-5.1V26.94a6.12,6.12,0,0,0-1.3-4.3,4.91,4.91,0,0,0-3.6-1.5,5.18,5.18,0,0,0-4.2,1.7,6.69,6.69,0,0,0-1.5,4.9v11.1h-5.1V17h4.9v2.8a6.82,6.82,0,0,1,3.1-2.2,11.5,11.5,0,0,1,4.1-.8,11.17,11.17,0,0,1,4.4.9,7.1,7.1,0,0,1,3,2.7,8.49,8.49,0,0,1,3.5-2.7,11,11,0,0,1,4.7-1A8.64,8.64,0,0,1,540.2,19.14Z"/><path class="cls-1" d="M569.2,17,559,40.64a11.12,11.12,0,0,1-3.5,5,8.1,8.1,0,0,1-5,1.4,11.27,11.27,0,0,1-3.2-.5,6.14,6.14,0,0,1-2.6-1.5l2-3.8a6.19,6.19,0,0,0,1.7,1.1,4.48,4.48,0,0,0,2,.4,3.41,3.41,0,0,0,2.2-.7,5.33,5.33,0,0,0,1.6-2.3l.4-.9-9.5-21.9h5.3l7,16.2,6.9-16.2Z"/><path class="cls-1" d="M570.3,38.24a3.4,3.4,0,0,1,4.6-5,3.63,3.63,0,0,1,1.1,2.6,3.35,3.35,0,0,1-3.3,3.4A4.29,4.29,0,0,1,570.3,38.24Z"/><path class="cls-1" d="M581.3,12.54a2.74,2.74,0,0,1-.9-2.2,3.1,3.1,0,0,1,.9-2.2,3.34,3.34,0,0,1,2.3-.9,3.58,3.58,0,0,1,2.4.9,2.43,2.43,0,0,1,.9,2.1,3.17,3.17,0,0,1-.9,2.3,2.94,2.94,0,0,1-2.3.9A3.41,3.41,0,0,1,581.3,12.54ZM581,17h5.1v21.9H581Z"/><path class="cls-1" d="M614.3,8.44v30.4h-4.9V36a7.88,7.88,0,0,1-3.1,2.3,11.69,11.69,0,0,1-9.8-.6,9.64,9.64,0,0,1-4-4,11,11,0,0,1-1.4-5.9,12.73,12.73,0,0,1,1.4-5.8,9.41,9.41,0,0,1,4-3.9,12.32,12.32,0,0,1,5.7-1.4,10.88,10.88,0,0,1,4,.7,8.39,8.39,0,0,1,3.1,2.2V8.44Zm-8.2,25.5a5.89,5.89,0,0,0,2.3-2.4,8.27,8.27,0,0,0,0-7.2,5.89,5.89,0,0,0-2.3-2.4,7,7,0,0,0-6.6,0,5.89,5.89,0,0,0-2.3,2.4,8.27,8.27,0,0,0,0,7.2,5.89,5.89,0,0,0,2.3,2.4A7,7,0,0,0,606.1,33.94Z"/></svg>